<?xml version="1.0" encoding="UTF-8" standalone="no"?>
<!DOCTYPE svg PUBLIC "-//W3C//DTD SVG 1.1//EN"
 "http://www.w3.org/Graphics/SVG/1.1/DTD/svg11.dtd">
<!-- Generated by graphviz version 2.40.1 (20161225.0304)
 -->
<!-- Title: CFG for &#39;_Z1fi&#39; function Pages: 1 -->
<svg width="908pt" height="1641pt"
 viewBox="0.00 0.00 908.00 1641.00" xmlns="http://www.w3.org/2000/svg" xmlns:xlink="http://www.w3.org/1999/xlink">
<g id="graph0" class="graph" transform="scale(1 1) rotate(0) translate(4 1637)">
<title>CFG for &#39;_Z1fi&#39; function</title>
<polygon fill="#ffffff" stroke="transparent" points="-4,4 -4,-1637 904,-1637 904,4 -4,4"/>
<text text-anchor="middle" x="450" y="-7.8" font-family="Times,serif" font-size="14.00" fill="#000000">CFG for &#39;_Z1fi&#39; function</text>
<!-- Node0x5636ce9ec750 -->
<g id="node1" class="node">
<title>Node0x5636ce9ec750</title>
<polygon fill="none" stroke="#000000" points="543.5,-1474.5 543.5,-1632.5 740.5,-1632.5 740.5,-1474.5 543.5,-1474.5"/>
<text text-anchor="start" x="551.5" y="-1617.3" font-family="Times,serif" font-size="14.00" fill="#000000">%1:</text>
<text text-anchor="start" x="551.5" y="-1602.3" font-family="Times,serif" font-size="14.00" fill="#000000"> %2 = alloca i32, align 4</text>
<text text-anchor="start" x="551.5" y="-1587.3" font-family="Times,serif" font-size="14.00" fill="#000000"> %3 = alloca i32, align 4</text>
<text text-anchor="start" x="551.5" y="-1572.3" font-family="Times,serif" font-size="14.00" fill="#000000"> %4 = alloca i32, align 4</text>
<text text-anchor="start" x="551.5" y="-1557.3" font-family="Times,serif" font-size="14.00" fill="#000000"> %5 = alloca i32, align 4</text>
<text text-anchor="start" x="551.5" y="-1542.3" font-family="Times,serif" font-size="14.00" fill="#000000"> %6 = alloca i32, align 4</text>
<text text-anchor="start" x="551.5" y="-1527.3" font-family="Times,serif" font-size="14.00" fill="#000000"> %7 = alloca i32, align 4</text>
<text text-anchor="start" x="551.5" y="-1512.3" font-family="Times,serif" font-size="14.00" fill="#000000"> store i32 %0, i32* %2, align 4</text>
<text text-anchor="start" x="551.5" y="-1497.3" font-family="Times,serif" font-size="14.00" fill="#000000"> store i32 2, i32* %3, align 4</text>
<text text-anchor="start" x="551.5" y="-1482.3" font-family="Times,serif" font-size="14.00" fill="#000000"> br label %8</text>
</g>
<!-- Node0x5636cea17100 -->
<g id="node2" class="node">
<title>Node0x5636cea17100</title>
<polygon fill="none" stroke="#000000" points="534.5,-1315.5 534.5,-1437.5 749.5,-1437.5 749.5,-1315.5 534.5,-1315.5"/>
<text text-anchor="start" x="542.5" y="-1422.3" font-family="Times,serif" font-size="14.00" fill="#000000">%8:</text>
<text text-anchor="start" x="542.5" y="-1391.3" font-family="Times,serif" font-size="14.00" fill="#000000"> %9 = load i32, i32* %3, align 4</text>
<text text-anchor="start" x="542.5" y="-1376.3" font-family="Times,serif" font-size="14.00" fill="#000000"> %10 = load i32, i32* %2, align 4</text>
<text text-anchor="start" x="542.5" y="-1361.3" font-family="Times,serif" font-size="14.00" fill="#000000"> %11 = icmp sle i32 %9, %10</text>
<text text-anchor="start" x="542.5" y="-1346.3" font-family="Times,serif" font-size="14.00" fill="#000000"> br i1 %11, label %12, label %19</text>
<polyline fill="none" stroke="#000000" points="534.5,-1338.5 749.5,-1338.5 "/>
<text text-anchor="middle" x="588.5" y="-1323.3" font-family="Times,serif" font-size="14.00" fill="#000000">T</text>
<polyline fill="none" stroke="#000000" points="642.5,-1315.5 642.5,-1338.5 "/>
<text text-anchor="middle" x="696" y="-1323.3" font-family="Times,serif" font-size="14.00" fill="#000000">F</text>
</g>
<!-- Node0x5636ce9ec750&#45;&gt;Node0x5636cea17100 -->
<g id="edge1" class="edge">
<title>Node0x5636ce9ec750&#45;&gt;Node0x5636cea17100</title>
<path fill="none" stroke="#000000" d="M642,-1474.3186C642,-1465.4535 642,-1456.4623 642,-1447.706"/>
<polygon fill="#000000" stroke="#000000" points="645.5001,-1447.5566 642,-1437.5566 638.5001,-1447.5567 645.5001,-1447.5566"/>
</g>
<!-- Node0x5636cea17150 -->
<g id="node3" class="node">
<title>Node0x5636cea17150</title>
<polygon fill="none" stroke="#000000" points="164,-1157 164,-1271 614,-1271 614,-1157 164,-1157"/>
<text text-anchor="start" x="172" y="-1255.8" font-family="Times,serif" font-size="14.00" fill="#000000">%12:</text>
<text text-anchor="start" x="172" y="-1224.8" font-family="Times,serif" font-size="14.00" fill="#000000"> %13 = load i32, i32* %3, align 4</text>
<text text-anchor="start" x="172" y="-1209.8" font-family="Times,serif" font-size="14.00" fill="#000000"> %14 = sext i32 %13 to i64</text>
<text text-anchor="start" x="172" y="-1194.8" font-family="Times,serif" font-size="14.00" fill="#000000"> %15 = getelementptr inbounds [100 x i8], [100 x i8]* @a, i64 0, i64 %14</text>
<text text-anchor="start" x="172" y="-1179.8" font-family="Times,serif" font-size="14.00" fill="#000000"> store i8 1, i8* %15, align 1</text>
<text text-anchor="start" x="172" y="-1164.8" font-family="Times,serif" font-size="14.00" fill="#000000"> br label %16</text>
</g>
<!-- Node0x5636cea17100&#45;&gt;Node0x5636cea17150 -->
<g id="edge2" class="edge">
<title>Node0x5636cea17100:s0&#45;&gt;Node0x5636cea17150</title>
<path fill="none" stroke="#000000" d="M534,-1326.5C497.3159,-1326.5 464.2995,-1303.7445 439.0719,-1278.7019"/>
<polygon fill="#000000" stroke="#000000" points="441.3076,-1275.9798 431.8327,-1271.2387 436.283,-1280.8536 441.3076,-1275.9798"/>
</g>
<!-- Node0x5636cea171f0 -->
<g id="node4" class="node">
<title>Node0x5636cea171f0</title>
<polygon fill="none" stroke="#000000" points="670,-1149.5 670,-1278.5 900,-1278.5 900,-1149.5 670,-1149.5"/>
<text text-anchor="start" x="678" y="-1263.3" font-family="Times,serif" font-size="14.00" fill="#000000">%19:</text>
<text text-anchor="start" x="678" y="-1232.3" font-family="Times,serif" font-size="14.00" fill="#000000"> store i32 0, i32* %4, align 4</text>
<text text-anchor="start" x="678" y="-1217.3" font-family="Times,serif" font-size="14.00" fill="#000000"> %20 = load i32, i32* %2, align 4</text>
<text text-anchor="start" x="678" y="-1202.3" font-family="Times,serif" font-size="14.00" fill="#000000"> %21 = call i32 @_Z4sqrti(i32 %20)</text>
<text text-anchor="start" x="678" y="-1187.3" font-family="Times,serif" font-size="14.00" fill="#000000"> store i32 %21, i32* %5, align 4</text>
<text text-anchor="start" x="678" y="-1172.3" font-family="Times,serif" font-size="14.00" fill="#000000"> store i32 2, i32* %6, align 4</text>
<text text-anchor="start" x="678" y="-1157.3" font-family="Times,serif" font-size="14.00" fill="#000000"> br label %22</text>
</g>
<!-- Node0x5636cea17100&#45;&gt;Node0x5636cea171f0 -->
<g id="edge3" class="edge">
<title>Node0x5636cea17100:s1&#45;&gt;Node0x5636cea171f0</title>
<path fill="none" stroke="#000000" d="M750,-1326.5C770.3068,-1326.5 780.1273,-1309.5811 784.5406,-1288.8656"/>
<polygon fill="#000000" stroke="#000000" points="788.028,-1289.2346 786.2508,-1278.7899 781.1267,-1288.0632 788.028,-1289.2346"/>
</g>
<!-- Node0x5636cea171a0 -->
<g id="node5" class="node">
<title>Node0x5636cea171a0</title>
<polygon fill="none" stroke="#000000" points="363.5,-1002 363.5,-1101 578.5,-1101 578.5,-1002 363.5,-1002"/>
<text text-anchor="start" x="371.5" y="-1085.8" font-family="Times,serif" font-size="14.00" fill="#000000">%16:</text>
<text text-anchor="start" x="371.5" y="-1054.8" font-family="Times,serif" font-size="14.00" fill="#000000"> %17 = load i32, i32* %3, align 4</text>
<text text-anchor="start" x="371.5" y="-1039.8" font-family="Times,serif" font-size="14.00" fill="#000000"> %18 = add nsw i32 %17, 1</text>
<text text-anchor="start" x="371.5" y="-1024.8" font-family="Times,serif" font-size="14.00" fill="#000000"> store i32 %18, i32* %3, align 4</text>
<text text-anchor="start" x="371.5" y="-1009.8" font-family="Times,serif" font-size="14.00" fill="#000000"> br label %8</text>
</g>
<!-- Node0x5636cea17150&#45;&gt;Node0x5636cea171a0 -->
<g id="edge4" class="edge">
<title>Node0x5636cea17150&#45;&gt;Node0x5636cea171a0</title>
<path fill="none" stroke="#000000" d="M417.9101,-1156.7086C425.4707,-1141.7257 433.6337,-1125.5491 441.2378,-1110.48"/>
<polygon fill="#000000" stroke="#000000" points="444.5094,-1111.7656 445.8898,-1101.2611 438.26,-1108.612 444.5094,-1111.7656"/>
</g>
<!-- Node0x5636cea17240 -->
<g id="node6" class="node">
<title>Node0x5636cea17240</title>
<polygon fill="none" stroke="#000000" points="677.5,-990.5 677.5,-1112.5 892.5,-1112.5 892.5,-990.5 677.5,-990.5"/>
<text text-anchor="start" x="685.5" y="-1097.3" font-family="Times,serif" font-size="14.00" fill="#000000">%22:</text>
<text text-anchor="start" x="685.5" y="-1066.3" font-family="Times,serif" font-size="14.00" fill="#000000"> %23 = load i32, i32* %6, align 4</text>
<text text-anchor="start" x="685.5" y="-1051.3" font-family="Times,serif" font-size="14.00" fill="#000000"> %24 = load i32, i32* %5, align 4</text>
<text text-anchor="start" x="685.5" y="-1036.3" font-family="Times,serif" font-size="14.00" fill="#000000"> %25 = icmp sle i32 %23, %24</text>
<text text-anchor="start" x="685.5" y="-1021.3" font-family="Times,serif" font-size="14.00" fill="#000000"> br i1 %25, label %26, label %54</text>
<polyline fill="none" stroke="#000000" points="677.5,-1013.5 892.5,-1013.5 "/>
<text text-anchor="middle" x="731.5" y="-998.3" font-family="Times,serif" font-size="14.00" fill="#000000">T</text>
<polyline fill="none" stroke="#000000" points="785.5,-990.5 785.5,-1013.5 "/>
<text text-anchor="middle" x="839" y="-998.3" font-family="Times,serif" font-size="14.00" fill="#000000">F</text>
</g>
<!-- Node0x5636cea171f0&#45;&gt;Node0x5636cea17240 -->
<g id="edge6" class="edge">
<title>Node0x5636cea171f0&#45;&gt;Node0x5636cea17240</title>
<path fill="none" stroke="#000000" d="M785,-1149.3088C785,-1140.5935 785,-1131.6128 785,-1122.7911"/>
<polygon fill="#000000" stroke="#000000" points="788.5001,-1122.5336 785,-1112.5337 781.5001,-1122.5337 788.5001,-1122.5336"/>
</g>
<!-- Node0x5636cea171a0&#45;&gt;Node0x5636cea17100 -->
<g id="edge5" class="edge">
<title>Node0x5636cea171a0&#45;&gt;Node0x5636cea17100</title>
<path fill="none" stroke="#000000" d="M576.8099,-1101.0618C594.9519,-1114.1631 611.6004,-1130.0639 623,-1149 650.9949,-1195.503 654.4747,-1257.3588 651.6572,-1304.8323"/>
<polygon fill="#000000" stroke="#000000" points="648.1497,-1304.8183 650.9424,-1315.0384 655.1326,-1305.3074 648.1497,-1304.8183"/>
</g>
<!-- Node0x5636cea17290 -->
<g id="node7" class="node">
<title>Node0x5636cea17290</title>
<polygon fill="none" stroke="#000000" points="307,-801.5 307,-953.5 757,-953.5 757,-801.5 307,-801.5"/>
<text text-anchor="start" x="315" y="-938.3" font-family="Times,serif" font-size="14.00" fill="#000000">%26:</text>
<text text-anchor="start" x="315" y="-907.3" font-family="Times,serif" font-size="14.00" fill="#000000"> %27 = load i32, i32* %6, align 4</text>
<text text-anchor="start" x="315" y="-892.3" font-family="Times,serif" font-size="14.00" fill="#000000"> %28 = sext i32 %27 to i64</text>
<text text-anchor="start" x="315" y="-877.3" font-family="Times,serif" font-size="14.00" fill="#000000"> %29 = getelementptr inbounds [100 x i8], [100 x i8]* @a, i64 0, i64 %28</text>
<text text-anchor="start" x="315" y="-862.3" font-family="Times,serif" font-size="14.00" fill="#000000"> %30 = load i8, i8* %29, align 1</text>
<text text-anchor="start" x="315" y="-847.3" font-family="Times,serif" font-size="14.00" fill="#000000"> %31 = trunc i8 %30 to i1</text>
<text text-anchor="start" x="315" y="-832.3" font-family="Times,serif" font-size="14.00" fill="#000000"> br i1 %31, label %32, label %50</text>
<polyline fill="none" stroke="#000000" points="307,-824.5 757,-824.5 "/>
<text text-anchor="middle" x="419.5" y="-809.3" font-family="Times,serif" font-size="14.00" fill="#000000">T</text>
<polyline fill="none" stroke="#000000" points="532,-801.5 532,-824.5 "/>
<text text-anchor="middle" x="644.5" y="-809.3" font-family="Times,serif" font-size="14.00" fill="#000000">F</text>
</g>
<!-- Node0x5636cea17240&#45;&gt;Node0x5636cea17290 -->
<g id="edge7" class="edge">
<title>Node0x5636cea17240:s0&#45;&gt;Node0x5636cea17290</title>
<path fill="none" stroke="#000000" d="M677,-1001.5C644.4304,-1001.5 615.4888,-983.2065 592.1931,-960.6723"/>
<polygon fill="#000000" stroke="#000000" points="594.6708,-958.2002 585.1469,-953.5584 589.6974,-963.1262 594.6708,-958.2002"/>
</g>
<!-- Node0x5636cea17510 -->
<g id="node8" class="node">
<title>Node0x5636cea17510</title>
<polygon fill="none" stroke="#000000" points="813.5,-850.5 813.5,-904.5 878.5,-904.5 878.5,-850.5 813.5,-850.5"/>
<text text-anchor="start" x="821.5" y="-889.3" font-family="Times,serif" font-size="14.00" fill="#000000">%54:</text>
<text text-anchor="start" x="821.5" y="-858.3" font-family="Times,serif" font-size="14.00" fill="#000000"> ret void</text>
</g>
<!-- Node0x5636cea17240&#45;&gt;Node0x5636cea17510 -->
<g id="edge8" class="edge">
<title>Node0x5636cea17240:s1&#45;&gt;Node0x5636cea17510</title>
<path fill="none" stroke="#000000" d="M839,-990.5C839,-965.3315 840.7513,-937.0701 842.5019,-915.1064"/>
<polygon fill="#000000" stroke="#000000" points="846.0122,-915.1272 843.3536,-904.8714 839.0363,-914.5466 846.0122,-915.1272"/>
</g>
<!-- Node0x5636cea172e0 -->
<g id="node9" class="node">
<title>Node0x5636cea172e0</title>
<polygon fill="none" stroke="#000000" points="321.5,-620.5 321.5,-764.5 536.5,-764.5 536.5,-620.5 321.5,-620.5"/>
<text text-anchor="start" x="329.5" y="-749.3" font-family="Times,serif" font-size="14.00" fill="#000000">%32:</text>
<text text-anchor="start" x="329.5" y="-718.3" font-family="Times,serif" font-size="14.00" fill="#000000"> %33 = load i32, i32* %4, align 4</text>
<text text-anchor="start" x="329.5" y="-703.3" font-family="Times,serif" font-size="14.00" fill="#000000"> %34 = add nsw i32 %33, 1</text>
<text text-anchor="start" x="329.5" y="-688.3" font-family="Times,serif" font-size="14.00" fill="#000000"> store i32 %34, i32* %4, align 4</text>
<text text-anchor="start" x="329.5" y="-673.3" font-family="Times,serif" font-size="14.00" fill="#000000"> %35 = load i32, i32* %6, align 4</text>
<text text-anchor="start" x="329.5" y="-658.3" font-family="Times,serif" font-size="14.00" fill="#000000"> %36 = mul nsw i32 2, %35</text>
<text text-anchor="start" x="329.5" y="-643.3" font-family="Times,serif" font-size="14.00" fill="#000000"> store i32 %36, i32* %7, align 4</text>
<text text-anchor="start" x="329.5" y="-628.3" font-family="Times,serif" font-size="14.00" fill="#000000"> br label %37</text>
</g>
<!-- Node0x5636cea17290&#45;&gt;Node0x5636cea172e0 -->
<g id="edge9" class="edge">
<title>Node0x5636cea17290:s0&#45;&gt;Node0x5636cea172e0</title>
<path fill="none" stroke="#000000" d="M419,-801.5C419,-792.8016 419.3197,-783.7291 419.8448,-774.6942"/>
<polygon fill="#000000" stroke="#000000" points="423.3493,-774.7413 420.5188,-764.5316 416.3646,-774.278 423.3493,-774.7413"/>
</g>
<!-- Node0x5636cea17470 -->
<g id="node10" class="node">
<title>Node0x5636cea17470</title>
<polygon fill="none" stroke="#000000" points="598,-189.5 598,-243.5 692,-243.5 692,-189.5 598,-189.5"/>
<text text-anchor="start" x="606" y="-228.3" font-family="Times,serif" font-size="14.00" fill="#000000">%50:</text>
<text text-anchor="start" x="606" y="-197.3" font-family="Times,serif" font-size="14.00" fill="#000000"> br label %51</text>
</g>
<!-- Node0x5636cea17290&#45;&gt;Node0x5636cea17470 -->
<g id="edge10" class="edge">
<title>Node0x5636cea17290:s1&#45;&gt;Node0x5636cea17470</title>
<path fill="none" stroke="#000000" d="M645,-801.5C645,-594.6321 645,-346.6158 645,-253.8884"/>
<polygon fill="#000000" stroke="#000000" points="648.5001,-253.6166 645,-243.6166 641.5001,-253.6166 648.5001,-253.6166"/>
</g>
<!-- Node0x5636cea17330 -->
<g id="node11" class="node">
<title>Node0x5636cea17330</title>
<polygon fill="none" stroke="#000000" points="359.5,-461.5 359.5,-583.5 574.5,-583.5 574.5,-461.5 359.5,-461.5"/>
<text text-anchor="start" x="367.5" y="-568.3" font-family="Times,serif" font-size="14.00" fill="#000000">%37:</text>
<text text-anchor="start" x="367.5" y="-537.3" font-family="Times,serif" font-size="14.00" fill="#000000"> %38 = load i32, i32* %7, align 4</text>
<text text-anchor="start" x="367.5" y="-522.3" font-family="Times,serif" font-size="14.00" fill="#000000"> %39 = load i32, i32* %2, align 4</text>
<text text-anchor="start" x="367.5" y="-507.3" font-family="Times,serif" font-size="14.00" fill="#000000"> %40 = icmp sle i32 %38, %39</text>
<text text-anchor="start" x="367.5" y="-492.3" font-family="Times,serif" font-size="14.00" fill="#000000"> br i1 %40, label %41, label %49</text>
<polyline fill="none" stroke="#000000" points="359.5,-484.5 574.5,-484.5 "/>
<text text-anchor="middle" x="413.5" y="-469.3" font-family="Times,serif" font-size="14.00" fill="#000000">T</text>
<polyline fill="none" stroke="#000000" points="467.5,-461.5 467.5,-484.5 "/>
<text text-anchor="middle" x="521" y="-469.3" font-family="Times,serif" font-size="14.00" fill="#000000">F</text>
</g>
<!-- Node0x5636cea172e0&#45;&gt;Node0x5636cea17330 -->
<g id="edge11" class="edge">
<title>Node0x5636cea172e0&#45;&gt;Node0x5636cea17330</title>
<path fill="none" stroke="#000000" d="M445.1154,-620.4047C447.0995,-611.5284 449.1266,-602.4599 451.1074,-593.5985"/>
<polygon fill="#000000" stroke="#000000" points="454.5535,-594.2258 453.3193,-583.7031 447.7221,-592.6988 454.5535,-594.2258"/>
</g>
<!-- Node0x5636cea174c0 -->
<g id="node15" class="node">
<title>Node0x5636cea174c0</title>
<polygon fill="none" stroke="#000000" points="607.5,-23.5 607.5,-122.5 822.5,-122.5 822.5,-23.5 607.5,-23.5"/>
<text text-anchor="start" x="615.5" y="-107.3" font-family="Times,serif" font-size="14.00" fill="#000000">%51:</text>
<text text-anchor="start" x="615.5" y="-76.3" font-family="Times,serif" font-size="14.00" fill="#000000"> %52 = load i32, i32* %6, align 4</text>
<text text-anchor="start" x="615.5" y="-61.3" font-family="Times,serif" font-size="14.00" fill="#000000"> %53 = add nsw i32 %52, 1</text>
<text text-anchor="start" x="615.5" y="-46.3" font-family="Times,serif" font-size="14.00" fill="#000000"> store i32 %53, i32* %6, align 4</text>
<text text-anchor="start" x="615.5" y="-31.3" font-family="Times,serif" font-size="14.00" fill="#000000"> br label %22</text>
</g>
<!-- Node0x5636cea17470&#45;&gt;Node0x5636cea174c0 -->
<g id="edge17" class="edge">
<title>Node0x5636cea17470&#45;&gt;Node0x5636cea174c0</title>
<path fill="none" stroke="#000000" d="M658.3312,-189.171C666.2775,-172.8812 676.6805,-151.5551 686.4014,-131.6271"/>
<polygon fill="#000000" stroke="#000000" points="689.5699,-133.1148 690.8085,-122.5926 683.2785,-130.0458 689.5699,-133.1148"/>
</g>
<!-- Node0x5636cea17380 -->
<g id="node12" class="node">
<title>Node0x5636cea17380</title>
<polygon fill="none" stroke="#000000" points="0,-310.5 0,-424.5 450,-424.5 450,-310.5 0,-310.5"/>
<text text-anchor="start" x="8" y="-409.3" font-family="Times,serif" font-size="14.00" fill="#000000">%41:</text>
<text text-anchor="start" x="8" y="-378.3" font-family="Times,serif" font-size="14.00" fill="#000000"> %42 = load i32, i32* %7, align 4</text>
<text text-anchor="start" x="8" y="-363.3" font-family="Times,serif" font-size="14.00" fill="#000000"> %43 = sext i32 %42 to i64</text>
<text text-anchor="start" x="8" y="-348.3" font-family="Times,serif" font-size="14.00" fill="#000000"> %44 = getelementptr inbounds [100 x i8], [100 x i8]* @a, i64 0, i64 %43</text>
<text text-anchor="start" x="8" y="-333.3" font-family="Times,serif" font-size="14.00" fill="#000000"> store i8 0, i8* %44, align 1</text>
<text text-anchor="start" x="8" y="-318.3" font-family="Times,serif" font-size="14.00" fill="#000000"> br label %45</text>
</g>
<!-- Node0x5636cea17330&#45;&gt;Node0x5636cea17380 -->
<g id="edge12" class="edge">
<title>Node0x5636cea17330:s0&#45;&gt;Node0x5636cea17380</title>
<path fill="none" stroke="#000000" d="M359,-472.5C326.8639,-472.5 297.8528,-453.5579 275.1095,-431.7645"/>
<polygon fill="#000000" stroke="#000000" points="277.497,-429.2023 267.9496,-424.609 272.5487,-434.1535 277.497,-429.2023"/>
</g>
<!-- Node0x5636cea17420 -->
<g id="node13" class="node">
<title>Node0x5636cea17420</title>
<polygon fill="none" stroke="#000000" points="517,-340.5 517,-394.5 611,-394.5 611,-340.5 517,-340.5"/>
<text text-anchor="start" x="525" y="-379.3" font-family="Times,serif" font-size="14.00" fill="#000000">%49:</text>
<text text-anchor="start" x="525" y="-348.3" font-family="Times,serif" font-size="14.00" fill="#000000"> br label %50</text>
</g>
<!-- Node0x5636cea17330&#45;&gt;Node0x5636cea17420 -->
<g id="edge13" class="edge">
<title>Node0x5636cea17330:s1&#45;&gt;Node0x5636cea17420</title>
<path fill="none" stroke="#000000" d="M521,-461.5C521,-441.2099 529.3874,-420.5069 538.7535,-403.7134"/>
<polygon fill="#000000" stroke="#000000" points="541.9383,-405.2035 544.0106,-394.8133 535.9112,-401.6434 541.9383,-405.2035"/>
</g>
<!-- Node0x5636cea173d0 -->
<g id="node14" class="node">
<title>Node0x5636cea173d0</title>
<polygon fill="none" stroke="#000000" points="241.5,-159.5 241.5,-273.5 456.5,-273.5 456.5,-159.5 241.5,-159.5"/>
<text text-anchor="start" x="249.5" y="-258.3" font-family="Times,serif" font-size="14.00" fill="#000000">%45:</text>
<text text-anchor="start" x="249.5" y="-227.3" font-family="Times,serif" font-size="14.00" fill="#000000"> %46 = load i32, i32* %6, align 4</text>
<text text-anchor="start" x="249.5" y="-212.3" font-family="Times,serif" font-size="14.00" fill="#000000"> %47 = load i32, i32* %7, align 4</text>
<text text-anchor="start" x="249.5" y="-197.3" font-family="Times,serif" font-size="14.00" fill="#000000"> %48 = add nsw i32 %47, %46</text>
<text text-anchor="start" x="249.5" y="-182.3" font-family="Times,serif" font-size="14.00" fill="#000000"> store i32 %48, i32* %7, align 4</text>
<text text-anchor="start" x="249.5" y="-167.3" font-family="Times,serif" font-size="14.00" fill="#000000"> br label %37</text>
</g>
<!-- Node0x5636cea17380&#45;&gt;Node0x5636cea173d0 -->
<g id="edge14" class="edge">
<title>Node0x5636cea17380&#45;&gt;Node0x5636cea173d0</title>
<path fill="none" stroke="#000000" d="M271.8791,-310.4134C279.5947,-301.0177 287.643,-291.2169 295.5054,-281.6426"/>
<polygon fill="#000000" stroke="#000000" points="298.4132,-283.6167 302.0546,-273.6673 293.0034,-279.1743 298.4132,-283.6167"/>
</g>
<!-- Node0x5636cea17420&#45;&gt;Node0x5636cea17470 -->
<g id="edge16" class="edge">
<title>Node0x5636cea17420&#45;&gt;Node0x5636cea17470</title>
<path fill="none" stroke="#000000" d="M578.6685,-340.155C591.8001,-315.6751 611.1501,-279.603 625.5657,-252.7294"/>
<polygon fill="#000000" stroke="#000000" points="628.7978,-254.1082 630.4406,-243.6415 622.6292,-250.7992 628.7978,-254.1082"/>
</g>
<!-- Node0x5636cea173d0&#45;&gt;Node0x5636cea17330 -->
<g id="edge15" class="edge">
<title>Node0x5636cea173d0&#45;&gt;Node0x5636cea17330</title>
<path fill="none" stroke="#000000" d="M432.6915,-273.7571C443.2175,-284.5597 452.5417,-296.6971 459,-310 480.1216,-353.5064 481.7217,-408.1302 478.2483,-451.1014"/>
<polygon fill="#000000" stroke="#000000" points="474.7502,-450.9221 477.3226,-461.1999 481.7209,-451.5612 474.7502,-450.9221"/>
</g>
<!-- Node0x5636cea174c0&#45;&gt;Node0x5636cea17240 -->
<g id="edge18" class="edge">
<title>Node0x5636cea174c0&#45;&gt;Node0x5636cea17240</title>
<path fill="none" stroke="#000000" d="M734.3131,-122.6928C755.0327,-180.5614 785,-279.4738 785,-367.5 785,-692.5 785,-692.5 785,-692.5 785,-792.1516 785,-907.3628 785,-979.8265"/>
<polygon fill="#000000" stroke="#000000" points="781.5001,-980.2007 785,-990.2008 788.5001,-980.2008 781.5001,-980.2007"/>
</g>
</g>
</svg>
