<?xml version="1.0" encoding="UTF-8" standalone="no"?>
<!DOCTYPE svg PUBLIC "-//W3C//DTD SVG 1.1//EN"
 "http://www.w3.org/Graphics/SVG/1.1/DTD/svg11.dtd">
<!-- Generated by graphviz version 2.40.1 (20161225.0304)
 -->
<!-- Title: CFG for &#39;_Z1fiPA100_iS0_S0_&#39; function Pages: 1 -->
<svg width="1066pt" height="1971pt"
 viewBox="0.00 0.00 1066.00 1971.00" xmlns="http://www.w3.org/2000/svg" xmlns:xlink="http://www.w3.org/1999/xlink">
<g id="graph0" class="graph" transform="scale(1 1) rotate(0) translate(4 1967)">
<title>CFG for &#39;_Z1fiPA100_iS0_S0_&#39; function</title>
<polygon fill="#ffffff" stroke="transparent" points="-4,4 -4,-1967 1062,-1967 1062,4 -4,4"/>
<text text-anchor="middle" x="529" y="-7.8" font-family="Times,serif" font-size="14.00" fill="#000000">CFG for &#39;_Z1fiPA100_iS0_S0_&#39; function</text>
<!-- Node0x558dabba6bf0 -->
<g id="node1" class="node">
<title>Node0x558dabba6bf0</title>
<polygon fill="none" stroke="#000000" points="499,-1714.5 499,-1962.5 804,-1962.5 804,-1714.5 499,-1714.5"/>
<text text-anchor="start" x="507" y="-1947.3" font-family="Times,serif" font-size="14.00" fill="#000000">%4:</text>
<text text-anchor="start" x="507" y="-1932.3" font-family="Times,serif" font-size="14.00" fill="#000000"> %5 = alloca i32, align 4</text>
<text text-anchor="start" x="507" y="-1917.3" font-family="Times,serif" font-size="14.00" fill="#000000"> %6 = alloca [100 x i32]*, align 8</text>
<text text-anchor="start" x="507" y="-1902.3" font-family="Times,serif" font-size="14.00" fill="#000000"> %7 = alloca [100 x i32]*, align 8</text>
<text text-anchor="start" x="507" y="-1887.3" font-family="Times,serif" font-size="14.00" fill="#000000"> %8 = alloca [100 x i32]*, align 8</text>
<text text-anchor="start" x="507" y="-1872.3" font-family="Times,serif" font-size="14.00" fill="#000000"> %9 = alloca i32, align 4</text>
<text text-anchor="start" x="507" y="-1857.3" font-family="Times,serif" font-size="14.00" fill="#000000"> %10 = alloca i32, align 4</text>
<text text-anchor="start" x="507" y="-1842.3" font-family="Times,serif" font-size="14.00" fill="#000000"> %11 = alloca i32, align 4</text>
<text text-anchor="start" x="507" y="-1827.3" font-family="Times,serif" font-size="14.00" fill="#000000"> %12 = alloca i32, align 4</text>
<text text-anchor="start" x="507" y="-1812.3" font-family="Times,serif" font-size="14.00" fill="#000000"> %13 = alloca i32, align 4</text>
<text text-anchor="start" x="507" y="-1797.3" font-family="Times,serif" font-size="14.00" fill="#000000"> store i32 %0, i32* %5, align 4</text>
<text text-anchor="start" x="507" y="-1782.3" font-family="Times,serif" font-size="14.00" fill="#000000"> store [100 x i32]* %1, [100 x i32]** %6, align 8</text>
<text text-anchor="start" x="507" y="-1767.3" font-family="Times,serif" font-size="14.00" fill="#000000"> store [100 x i32]* %2, [100 x i32]** %7, align 8</text>
<text text-anchor="start" x="507" y="-1752.3" font-family="Times,serif" font-size="14.00" fill="#000000"> store [100 x i32]* %3, [100 x i32]** %8, align 8</text>
<text text-anchor="start" x="507" y="-1737.3" font-family="Times,serif" font-size="14.00" fill="#000000"> store i32 0, i32* %9, align 4</text>
<text text-anchor="start" x="507" y="-1722.3" font-family="Times,serif" font-size="14.00" fill="#000000"> br label %14</text>
</g>
<!-- Node0x558dabbad5e0 -->
<g id="node2" class="node">
<title>Node0x558dabbad5e0</title>
<polygon fill="none" stroke="#000000" points="544,-1555.5 544,-1677.5 759,-1677.5 759,-1555.5 544,-1555.5"/>
<text text-anchor="start" x="552" y="-1662.3" font-family="Times,serif" font-size="14.00" fill="#000000">%14:</text>
<text text-anchor="start" x="552" y="-1631.3" font-family="Times,serif" font-size="14.00" fill="#000000"> %15 = load i32, i32* %9, align 4</text>
<text text-anchor="start" x="552" y="-1616.3" font-family="Times,serif" font-size="14.00" fill="#000000"> %16 = load i32, i32* %5, align 4</text>
<text text-anchor="start" x="552" y="-1601.3" font-family="Times,serif" font-size="14.00" fill="#000000"> %17 = icmp slt i32 %15, %16</text>
<text text-anchor="start" x="552" y="-1586.3" font-family="Times,serif" font-size="14.00" fill="#000000"> br i1 %17, label %18, label %38</text>
<polyline fill="none" stroke="#000000" points="544,-1578.5 759,-1578.5 "/>
<text text-anchor="middle" x="598" y="-1563.3" font-family="Times,serif" font-size="14.00" fill="#000000">T</text>
<polyline fill="none" stroke="#000000" points="652,-1555.5 652,-1578.5 "/>
<text text-anchor="middle" x="705.5" y="-1563.3" font-family="Times,serif" font-size="14.00" fill="#000000">F</text>
</g>
<!-- Node0x558dabba6bf0&#45;&gt;Node0x558dabbad5e0 -->
<g id="edge1" class="edge">
<title>Node0x558dabba6bf0&#45;&gt;Node0x558dabbad5e0</title>
<path fill="none" stroke="#000000" d="M651.5,-1714.1955C651.5,-1705.1793 651.5,-1696.282 651.5,-1687.746"/>
<polygon fill="#000000" stroke="#000000" points="655.0001,-1687.5295 651.5,-1677.5296 648.0001,-1687.5296 655.0001,-1687.5295"/>
</g>
<!-- Node0x558dabbad630 -->
<g id="node3" class="node">
<title>Node0x558dabbad630</title>
<polygon fill="none" stroke="#000000" points="421,-1449.5 421,-1518.5 614,-1518.5 614,-1449.5 421,-1449.5"/>
<text text-anchor="start" x="429" y="-1503.3" font-family="Times,serif" font-size="14.00" fill="#000000">%18:</text>
<text text-anchor="start" x="429" y="-1472.3" font-family="Times,serif" font-size="14.00" fill="#000000"> store i32 0, i32* %10, align 4</text>
<text text-anchor="start" x="429" y="-1457.3" font-family="Times,serif" font-size="14.00" fill="#000000"> br label %19</text>
</g>
<!-- Node0x558dabbad5e0&#45;&gt;Node0x558dabbad630 -->
<g id="edge2" class="edge">
<title>Node0x558dabbad5e0:s0&#45;&gt;Node0x558dabbad630</title>
<path fill="none" stroke="#000000" d="M543.5,-1566.5C525.3407,-1566.5 518.5356,-1548.093 516.4099,-1528.6681"/>
<polygon fill="#000000" stroke="#000000" points="519.8881,-1528.2367 515.6895,-1518.5094 512.9057,-1528.732 519.8881,-1528.2367"/>
</g>
<!-- Node0x558dabbad810 -->
<g id="node4" class="node">
<title>Node0x558dabbad810</title>
<polygon fill="none" stroke="#000000" points="729.5,-1449.5 729.5,-1518.5 921.5,-1518.5 921.5,-1449.5 729.5,-1449.5"/>
<text text-anchor="start" x="737.5" y="-1503.3" font-family="Times,serif" font-size="14.00" fill="#000000">%38:</text>
<text text-anchor="start" x="737.5" y="-1472.3" font-family="Times,serif" font-size="14.00" fill="#000000"> store i32 0, i32* %11, align 4</text>
<text text-anchor="start" x="737.5" y="-1457.3" font-family="Times,serif" font-size="14.00" fill="#000000"> br label %39</text>
</g>
<!-- Node0x558dabbad5e0&#45;&gt;Node0x558dabbad810 -->
<g id="edge3" class="edge">
<title>Node0x558dabbad5e0:s1&#45;&gt;Node0x558dabbad810</title>
<path fill="none" stroke="#000000" d="M759.5,-1566.5C782.0868,-1566.5 798.2153,-1547.4113 808.8724,-1527.5979"/>
<polygon fill="#000000" stroke="#000000" points="812.0728,-1529.0224 813.3875,-1518.5094 805.8038,-1525.9079 812.0728,-1529.0224"/>
</g>
<!-- Node0x558dabbad680 -->
<g id="node5" class="node">
<title>Node0x558dabbad680</title>
<polygon fill="none" stroke="#000000" points="396.5,-1290.5 396.5,-1412.5 618.5,-1412.5 618.5,-1290.5 396.5,-1290.5"/>
<text text-anchor="start" x="404.5" y="-1397.3" font-family="Times,serif" font-size="14.00" fill="#000000">%19:</text>
<text text-anchor="start" x="404.5" y="-1366.3" font-family="Times,serif" font-size="14.00" fill="#000000"> %20 = load i32, i32* %10, align 4</text>
<text text-anchor="start" x="404.5" y="-1351.3" font-family="Times,serif" font-size="14.00" fill="#000000"> %21 = load i32, i32* %5, align 4</text>
<text text-anchor="start" x="404.5" y="-1336.3" font-family="Times,serif" font-size="14.00" fill="#000000"> %22 = icmp slt i32 %20, %21</text>
<text text-anchor="start" x="404.5" y="-1321.3" font-family="Times,serif" font-size="14.00" fill="#000000"> br i1 %22, label %23, label %34</text>
<polyline fill="none" stroke="#000000" points="396.5,-1313.5 618.5,-1313.5 "/>
<text text-anchor="middle" x="452" y="-1298.3" font-family="Times,serif" font-size="14.00" fill="#000000">T</text>
<polyline fill="none" stroke="#000000" points="507.5,-1290.5 507.5,-1313.5 "/>
<text text-anchor="middle" x="563" y="-1298.3" font-family="Times,serif" font-size="14.00" fill="#000000">F</text>
</g>
<!-- Node0x558dabbad630&#45;&gt;Node0x558dabbad680 -->
<g id="edge4" class="edge">
<title>Node0x558dabbad630&#45;&gt;Node0x558dabbad680</title>
<path fill="none" stroke="#000000" d="M514.8726,-1449.1872C514.2522,-1440.9662 513.5683,-1431.9045 512.8747,-1422.7146"/>
<polygon fill="#000000" stroke="#000000" points="516.3636,-1422.4343 512.1208,-1412.7261 509.3834,-1422.9612 516.3636,-1422.4343"/>
</g>
<!-- Node0x558dabbad860 -->
<g id="node10" class="node">
<title>Node0x558dabbad860</title>
<polygon fill="none" stroke="#000000" points="803,-1290.5 803,-1412.5 1024,-1412.5 1024,-1290.5 803,-1290.5"/>
<text text-anchor="start" x="811" y="-1397.3" font-family="Times,serif" font-size="14.00" fill="#000000">%39:</text>
<text text-anchor="start" x="811" y="-1366.3" font-family="Times,serif" font-size="14.00" fill="#000000"> %40 = load i32, i32* %11, align 4</text>
<text text-anchor="start" x="811" y="-1351.3" font-family="Times,serif" font-size="14.00" fill="#000000"> %41 = load i32, i32* %5, align 4</text>
<text text-anchor="start" x="811" y="-1336.3" font-family="Times,serif" font-size="14.00" fill="#000000"> %42 = icmp slt i32 %40, %41</text>
<text text-anchor="start" x="811" y="-1321.3" font-family="Times,serif" font-size="14.00" fill="#000000"> br i1 %42, label %43, label %91</text>
<polyline fill="none" stroke="#000000" points="803,-1313.5 1024,-1313.5 "/>
<text text-anchor="middle" x="858.5" y="-1298.3" font-family="Times,serif" font-size="14.00" fill="#000000">T</text>
<polyline fill="none" stroke="#000000" points="914,-1290.5 914,-1313.5 "/>
<text text-anchor="middle" x="969" y="-1298.3" font-family="Times,serif" font-size="14.00" fill="#000000">F</text>
</g>
<!-- Node0x558dabbad810&#45;&gt;Node0x558dabbad860 -->
<g id="edge11" class="edge">
<title>Node0x558dabbad810&#45;&gt;Node0x558dabbad860</title>
<path fill="none" stroke="#000000" d="M848.621,-1449.1872C854.3714,-1440.5289 860.7411,-1430.9381 867.1773,-1421.2472"/>
<polygon fill="#000000" stroke="#000000" points="870.2197,-1422.9927 872.8366,-1412.7261 864.3885,-1419.1199 870.2197,-1422.9927"/>
</g>
<!-- Node0x558dabbad6d0 -->
<g id="node6" class="node">
<title>Node0x558dabbad6d0</title>
<polygon fill="none" stroke="#000000" points="0,-1079.5 0,-1253.5 473,-1253.5 473,-1079.5 0,-1079.5"/>
<text text-anchor="start" x="8" y="-1238.3" font-family="Times,serif" font-size="14.00" fill="#000000">%23:</text>
<text text-anchor="start" x="8" y="-1207.3" font-family="Times,serif" font-size="14.00" fill="#000000"> %24 = load [100 x i32]*, [100 x i32]** %6, align 8</text>
<text text-anchor="start" x="8" y="-1192.3" font-family="Times,serif" font-size="14.00" fill="#000000"> %25 = load i32, i32* %9, align 4</text>
<text text-anchor="start" x="8" y="-1177.3" font-family="Times,serif" font-size="14.00" fill="#000000"> %26 = sext i32 %25 to i64</text>
<text text-anchor="start" x="8" y="-1162.3" font-family="Times,serif" font-size="14.00" fill="#000000"> %27 = getelementptr inbounds [100 x i32], [100 x i32]* %24, i64 %26</text>
<text text-anchor="start" x="8" y="-1147.3" font-family="Times,serif" font-size="14.00" fill="#000000"> %28 = load i32, i32* %10, align 4</text>
<text text-anchor="start" x="8" y="-1132.3" font-family="Times,serif" font-size="14.00" fill="#000000"> %29 = sext i32 %28 to i64</text>
<text text-anchor="start" x="8" y="-1117.3" font-family="Times,serif" font-size="14.00" fill="#000000"> %30 = getelementptr inbounds [100 x i32], [100 x i32]* %27, i64 0, i64 %29</text>
<text text-anchor="start" x="8" y="-1102.3" font-family="Times,serif" font-size="14.00" fill="#000000"> store i32 0, i32* %30, align 4</text>
<text text-anchor="start" x="8" y="-1087.3" font-family="Times,serif" font-size="14.00" fill="#000000"> br label %31</text>
</g>
<!-- Node0x558dabbad680&#45;&gt;Node0x558dabbad6d0 -->
<g id="edge5" class="edge">
<title>Node0x558dabbad680:s0&#45;&gt;Node0x558dabbad6d0</title>
<path fill="none" stroke="#000000" d="M396.5,-1301.5C362.4285,-1301.5 331.8547,-1283.3966 306.786,-1260.4486"/>
<polygon fill="#000000" stroke="#000000" points="309.1773,-1257.8926 299.5251,-1253.5239 304.3463,-1262.9583 309.1773,-1257.8926"/>
</g>
<!-- Node0x558dabbad770 -->
<g id="node7" class="node">
<title>Node0x558dabbad770</title>
<polygon fill="none" stroke="#000000" points="529.5,-1139.5 529.5,-1193.5 623.5,-1193.5 623.5,-1139.5 529.5,-1139.5"/>
<text text-anchor="start" x="537.5" y="-1178.3" font-family="Times,serif" font-size="14.00" fill="#000000">%34:</text>
<text text-anchor="start" x="537.5" y="-1147.3" font-family="Times,serif" font-size="14.00" fill="#000000"> br label %35</text>
</g>
<!-- Node0x558dabbad680&#45;&gt;Node0x558dabbad770 -->
<g id="edge6" class="edge">
<title>Node0x558dabbad680:s1&#45;&gt;Node0x558dabbad770</title>
<path fill="none" stroke="#000000" d="M563.5,-1290.5C563.5,-1261.1429 567.1487,-1228.0884 570.5801,-1203.4938"/>
<polygon fill="#000000" stroke="#000000" points="574.057,-1203.905 572.0261,-1193.5067 567.1292,-1202.9019 574.057,-1203.905"/>
</g>
<!-- Node0x558dabbad720 -->
<g id="node8" class="node">
<title>Node0x558dabbad720</title>
<polygon fill="none" stroke="#000000" points="177.5,-932 177.5,-1031 399.5,-1031 399.5,-932 177.5,-932"/>
<text text-anchor="start" x="185.5" y="-1015.8" font-family="Times,serif" font-size="14.00" fill="#000000">%31:</text>
<text text-anchor="start" x="185.5" y="-984.8" font-family="Times,serif" font-size="14.00" fill="#000000"> %32 = load i32, i32* %10, align 4</text>
<text text-anchor="start" x="185.5" y="-969.8" font-family="Times,serif" font-size="14.00" fill="#000000"> %33 = add nsw i32 %32, 1</text>
<text text-anchor="start" x="185.5" y="-954.8" font-family="Times,serif" font-size="14.00" fill="#000000"> store i32 %33, i32* %10, align 4</text>
<text text-anchor="start" x="185.5" y="-939.8" font-family="Times,serif" font-size="14.00" fill="#000000"> br label %19</text>
</g>
<!-- Node0x558dabbad6d0&#45;&gt;Node0x558dabbad720 -->
<g id="edge7" class="edge">
<title>Node0x558dabbad6d0&#45;&gt;Node0x558dabbad720</title>
<path fill="none" stroke="#000000" d="M260.9773,-1079.4172C264.6564,-1066.3282 268.3762,-1053.0941 271.8409,-1040.768"/>
<polygon fill="#000000" stroke="#000000" points="275.2225,-1041.6715 274.5591,-1031.0975 268.4836,-1039.7773 275.2225,-1041.6715"/>
</g>
<!-- Node0x558dabbad7c0 -->
<g id="node9" class="node">
<title>Node0x558dabbad7c0</title>
<polygon fill="none" stroke="#000000" points="469,-932 469,-1031 684,-1031 684,-932 469,-932"/>
<text text-anchor="start" x="477" y="-1015.8" font-family="Times,serif" font-size="14.00" fill="#000000">%35:</text>
<text text-anchor="start" x="477" y="-984.8" font-family="Times,serif" font-size="14.00" fill="#000000"> %36 = load i32, i32* %9, align 4</text>
<text text-anchor="start" x="477" y="-969.8" font-family="Times,serif" font-size="14.00" fill="#000000"> %37 = add nsw i32 %36, 1</text>
<text text-anchor="start" x="477" y="-954.8" font-family="Times,serif" font-size="14.00" fill="#000000"> store i32 %37, i32* %9, align 4</text>
<text text-anchor="start" x="477" y="-939.8" font-family="Times,serif" font-size="14.00" fill="#000000"> br label %14</text>
</g>
<!-- Node0x558dabbad770&#45;&gt;Node0x558dabbad7c0 -->
<g id="edge9" class="edge">
<title>Node0x558dabbad770&#45;&gt;Node0x558dabbad7c0</title>
<path fill="none" stroke="#000000" d="M576.5,-1139.2026C576.5,-1113.5162 576.5,-1074.1812 576.5,-1041.2227"/>
<polygon fill="#000000" stroke="#000000" points="580.0001,-1041.221 576.5,-1031.2211 573.0001,-1041.2211 580.0001,-1041.221"/>
</g>
<!-- Node0x558dabbad720&#45;&gt;Node0x558dabbad680 -->
<g id="edge8" class="edge">
<title>Node0x558dabbad720&#45;&gt;Node0x558dabbad680</title>
<path fill="none" stroke="#000000" d="M399.6509,-1014.6797C430.9603,-1029.4162 461.814,-1050.1675 481.5,-1079 503.1143,-1110.6568 507.8125,-1210.6211 508.3311,-1280.2358"/>
<polygon fill="#000000" stroke="#000000" points="504.8312,-1280.2916 508.3788,-1290.2749 511.8312,-1280.2583 504.8312,-1280.2916"/>
</g>
<!-- Node0x558dabbad7c0&#45;&gt;Node0x558dabbad5e0 -->
<g id="edge10" class="edge">
<title>Node0x558dabbad7c0&#45;&gt;Node0x558dabbad5e0</title>
<path fill="none" stroke="#000000" d="M611.0997,-1031.0181C619.688,-1045.8006 627.7801,-1062.4832 632.5,-1079 678.6819,-1240.6101 669.3123,-1440.6977 659.68,-1545.2493"/>
<polygon fill="#000000" stroke="#000000" points="656.1799,-1545.085 658.7189,-1555.3711 663.1485,-1545.7468 656.1799,-1545.085"/>
</g>
<!-- Node0x558dabbad8b0 -->
<g id="node11" class="node">
<title>Node0x558dabbad8b0</title>
<polygon fill="none" stroke="#000000" points="724,-1132 724,-1201 917,-1201 917,-1132 724,-1132"/>
<text text-anchor="start" x="732" y="-1185.8" font-family="Times,serif" font-size="14.00" fill="#000000">%43:</text>
<text text-anchor="start" x="732" y="-1154.8" font-family="Times,serif" font-size="14.00" fill="#000000"> store i32 0, i32* %12, align 4</text>
<text text-anchor="start" x="732" y="-1139.8" font-family="Times,serif" font-size="14.00" fill="#000000"> br label %44</text>
</g>
<!-- Node0x558dabbad860&#45;&gt;Node0x558dabbad8b0 -->
<g id="edge12" class="edge">
<title>Node0x558dabbad860:s0&#45;&gt;Node0x558dabbad8b0</title>
<path fill="none" stroke="#000000" d="M858.5,-1290.5C858.5,-1263.2135 849.9843,-1233.9732 841.0154,-1210.7438"/>
<polygon fill="#000000" stroke="#000000" points="844.1471,-1209.1504 837.1674,-1201.1795 837.653,-1211.7632 844.1471,-1209.1504"/>
</g>
<!-- Node0x558dabbadbd0 -->
<g id="node12" class="node">
<title>Node0x558dabbadbd0</title>
<polygon fill="none" stroke="#000000" points="981,-1139.5 981,-1193.5 1046,-1193.5 1046,-1139.5 981,-1139.5"/>
<text text-anchor="start" x="989" y="-1178.3" font-family="Times,serif" font-size="14.00" fill="#000000">%91:</text>
<text text-anchor="start" x="989" y="-1147.3" font-family="Times,serif" font-size="14.00" fill="#000000"> ret void</text>
</g>
<!-- Node0x558dabbad860&#45;&gt;Node0x558dabbadbd0 -->
<g id="edge13" class="edge">
<title>Node0x558dabbad860:s1&#45;&gt;Node0x558dabbadbd0</title>
<path fill="none" stroke="#000000" d="M969.5,-1290.5C969.5,-1259.646 981.7488,-1226.831 993.321,-1202.7135"/>
<polygon fill="#000000" stroke="#000000" points="996.5377,-1204.1055 997.8634,-1193.5939 990.272,-1200.9845 996.5377,-1204.1055"/>
</g>
<!-- Node0x558dabbad900 -->
<g id="node13" class="node">
<title>Node0x558dabbad900</title>
<polygon fill="none" stroke="#000000" points="702.5,-920.5 702.5,-1042.5 924.5,-1042.5 924.5,-920.5 702.5,-920.5"/>
<text text-anchor="start" x="710.5" y="-1027.3" font-family="Times,serif" font-size="14.00" fill="#000000">%44:</text>
<text text-anchor="start" x="710.5" y="-996.3" font-family="Times,serif" font-size="14.00" fill="#000000"> %45 = load i32, i32* %12, align 4</text>
<text text-anchor="start" x="710.5" y="-981.3" font-family="Times,serif" font-size="14.00" fill="#000000"> %46 = load i32, i32* %5, align 4</text>
<text text-anchor="start" x="710.5" y="-966.3" font-family="Times,serif" font-size="14.00" fill="#000000"> %47 = icmp slt i32 %45, %46</text>
<text text-anchor="start" x="710.5" y="-951.3" font-family="Times,serif" font-size="14.00" fill="#000000"> br i1 %47, label %48, label %87</text>
<polyline fill="none" stroke="#000000" points="702.5,-943.5 924.5,-943.5 "/>
<text text-anchor="middle" x="758" y="-928.3" font-family="Times,serif" font-size="14.00" fill="#000000">T</text>
<polyline fill="none" stroke="#000000" points="813.5,-920.5 813.5,-943.5 "/>
<text text-anchor="middle" x="869" y="-928.3" font-family="Times,serif" font-size="14.00" fill="#000000">F</text>
</g>
<!-- Node0x558dabbad8b0&#45;&gt;Node0x558dabbad900 -->
<g id="edge14" class="edge">
<title>Node0x558dabbad8b0&#45;&gt;Node0x558dabbad900</title>
<path fill="none" stroke="#000000" d="M819.1834,-1131.7029C818.344,-1109.5211 817.2258,-1079.9682 816.2034,-1052.9467"/>
<polygon fill="#000000" stroke="#000000" points="819.6927,-1052.5955 815.817,-1042.735 812.6977,-1052.8602 819.6927,-1052.5955"/>
</g>
<!-- Node0x558dabbad950 -->
<g id="node14" class="node">
<title>Node0x558dabbad950</title>
<polygon fill="none" stroke="#000000" points="569,-814.5 569,-883.5 762,-883.5 762,-814.5 569,-814.5"/>
<text text-anchor="start" x="577" y="-868.3" font-family="Times,serif" font-size="14.00" fill="#000000">%48:</text>
<text text-anchor="start" x="577" y="-837.3" font-family="Times,serif" font-size="14.00" fill="#000000"> store i32 0, i32* %13, align 4</text>
<text text-anchor="start" x="577" y="-822.3" font-family="Times,serif" font-size="14.00" fill="#000000"> br label %49</text>
</g>
<!-- Node0x558dabbad900&#45;&gt;Node0x558dabbad950 -->
<g id="edge15" class="edge">
<title>Node0x558dabbad900:s0&#45;&gt;Node0x558dabbad950</title>
<path fill="none" stroke="#000000" d="M702.5,-931.5C697.6893,-931.5 689.0018,-912.5829 681.2533,-892.8656"/>
<polygon fill="#000000" stroke="#000000" points="684.5131,-891.5909 677.6618,-883.5094 677.9781,-894.0995 684.5131,-891.5909"/>
</g>
<!-- Node0x558dabbadb30 -->
<g id="node15" class="node">
<title>Node0x558dabbadb30</title>
<polygon fill="none" stroke="#000000" points="830.5,-822 830.5,-876 924.5,-876 924.5,-822 830.5,-822"/>
<text text-anchor="start" x="838.5" y="-860.8" font-family="Times,serif" font-size="14.00" fill="#000000">%87:</text>
<text text-anchor="start" x="838.5" y="-829.8" font-family="Times,serif" font-size="14.00" fill="#000000"> br label %88</text>
</g>
<!-- Node0x558dabbad900&#45;&gt;Node0x558dabbadb30 -->
<g id="edge16" class="edge">
<title>Node0x558dabbad900:s1&#45;&gt;Node0x558dabbadb30</title>
<path fill="none" stroke="#000000" d="M869.5,-920.5C869.5,-909.3306 870.4761,-897.2403 871.7464,-886.2352"/>
<polygon fill="#000000" stroke="#000000" points="875.248,-886.4425 873.0322,-876.082 868.3035,-885.563 875.248,-886.4425"/>
</g>
<!-- Node0x558dabbad9a0 -->
<g id="node16" class="node">
<title>Node0x558dabbad9a0</title>
<polygon fill="none" stroke="#000000" points="546.5,-655.5 546.5,-777.5 768.5,-777.5 768.5,-655.5 546.5,-655.5"/>
<text text-anchor="start" x="554.5" y="-762.3" font-family="Times,serif" font-size="14.00" fill="#000000">%49:</text>
<text text-anchor="start" x="554.5" y="-731.3" font-family="Times,serif" font-size="14.00" fill="#000000"> %50 = load i32, i32* %13, align 4</text>
<text text-anchor="start" x="554.5" y="-716.3" font-family="Times,serif" font-size="14.00" fill="#000000"> %51 = load i32, i32* %5, align 4</text>
<text text-anchor="start" x="554.5" y="-701.3" font-family="Times,serif" font-size="14.00" fill="#000000"> %52 = icmp slt i32 %50, %51</text>
<text text-anchor="start" x="554.5" y="-686.3" font-family="Times,serif" font-size="14.00" fill="#000000"> br i1 %52, label %53, label %83</text>
<polyline fill="none" stroke="#000000" points="546.5,-678.5 768.5,-678.5 "/>
<text text-anchor="middle" x="602" y="-663.3" font-family="Times,serif" font-size="14.00" fill="#000000">T</text>
<polyline fill="none" stroke="#000000" points="657.5,-655.5 657.5,-678.5 "/>
<text text-anchor="middle" x="713" y="-663.3" font-family="Times,serif" font-size="14.00" fill="#000000">F</text>
</g>
<!-- Node0x558dabbad950&#45;&gt;Node0x558dabbad9a0 -->
<g id="edge17" class="edge">
<title>Node0x558dabbad950&#45;&gt;Node0x558dabbad9a0</title>
<path fill="none" stroke="#000000" d="M663.3981,-814.1872C662.9017,-805.9662 662.3546,-796.9045 661.7998,-787.7146"/>
<polygon fill="#000000" stroke="#000000" points="665.2931,-787.497 661.1967,-777.7261 658.3058,-787.9189 665.2931,-787.497"/>
</g>
<!-- Node0x558dabbadb80 -->
<g id="node21" class="node">
<title>Node0x558dabbadb80</title>
<polygon fill="none" stroke="#000000" points="837,-667 837,-766 1058,-766 1058,-667 837,-667"/>
<text text-anchor="start" x="845" y="-750.8" font-family="Times,serif" font-size="14.00" fill="#000000">%88:</text>
<text text-anchor="start" x="845" y="-719.8" font-family="Times,serif" font-size="14.00" fill="#000000"> %89 = load i32, i32* %11, align 4</text>
<text text-anchor="start" x="845" y="-704.8" font-family="Times,serif" font-size="14.00" fill="#000000"> %90 = add nsw i32 %89, 1</text>
<text text-anchor="start" x="845" y="-689.8" font-family="Times,serif" font-size="14.00" fill="#000000"> store i32 %90, i32* %11, align 4</text>
<text text-anchor="start" x="845" y="-674.8" font-family="Times,serif" font-size="14.00" fill="#000000"> br label %39</text>
</g>
<!-- Node0x558dabbadb30&#45;&gt;Node0x558dabbadb80 -->
<g id="edge24" class="edge">
<title>Node0x558dabbadb30&#45;&gt;Node0x558dabbadb80</title>
<path fill="none" stroke="#000000" d="M891.8345,-821.8669C898.9893,-808.3239 907.9391,-791.3831 916.5564,-775.0717"/>
<polygon fill="#000000" stroke="#000000" points="919.7196,-776.5771 921.2961,-766.1002 913.5302,-773.3072 919.7196,-776.5771"/>
</g>
<!-- Node0x558dabbad9f0 -->
<g id="node17" class="node">
<title>Node0x558dabbad9f0</title>
<polygon fill="none" stroke="#000000" points="151,-159.5 151,-618.5 624,-618.5 624,-159.5 151,-159.5"/>
<text text-anchor="start" x="159" y="-603.3" font-family="Times,serif" font-size="14.00" fill="#000000">%53:</text>
<text text-anchor="start" x="159" y="-572.3" font-family="Times,serif" font-size="14.00" fill="#000000"> %54 = load [100 x i32]*, [100 x i32]** %7, align 8</text>
<text text-anchor="start" x="159" y="-557.3" font-family="Times,serif" font-size="14.00" fill="#000000"> %55 = load i32, i32* %11, align 4</text>
<text text-anchor="start" x="159" y="-542.3" font-family="Times,serif" font-size="14.00" fill="#000000"> %56 = sext i32 %55 to i64</text>
<text text-anchor="start" x="159" y="-527.3" font-family="Times,serif" font-size="14.00" fill="#000000"> %57 = getelementptr inbounds [100 x i32], [100 x i32]* %54, i64 %56</text>
<text text-anchor="start" x="159" y="-512.3" font-family="Times,serif" font-size="14.00" fill="#000000"> %58 = load i32, i32* %13, align 4</text>
<text text-anchor="start" x="159" y="-497.3" font-family="Times,serif" font-size="14.00" fill="#000000"> %59 = sext i32 %58 to i64</text>
<text text-anchor="start" x="159" y="-482.3" font-family="Times,serif" font-size="14.00" fill="#000000"> %60 = getelementptr inbounds [100 x i32], [100 x i32]* %57, i64 0, i64 %59</text>
<text text-anchor="start" x="159" y="-467.3" font-family="Times,serif" font-size="14.00" fill="#000000"> %61 = load i32, i32* %60, align 4</text>
<text text-anchor="start" x="159" y="-452.3" font-family="Times,serif" font-size="14.00" fill="#000000"> %62 = load [100 x i32]*, [100 x i32]** %8, align 8</text>
<text text-anchor="start" x="159" y="-437.3" font-family="Times,serif" font-size="14.00" fill="#000000"> %63 = load i32, i32* %13, align 4</text>
<text text-anchor="start" x="159" y="-422.3" font-family="Times,serif" font-size="14.00" fill="#000000"> %64 = sext i32 %63 to i64</text>
<text text-anchor="start" x="159" y="-407.3" font-family="Times,serif" font-size="14.00" fill="#000000"> %65 = getelementptr inbounds [100 x i32], [100 x i32]* %62, i64 %64</text>
<text text-anchor="start" x="159" y="-392.3" font-family="Times,serif" font-size="14.00" fill="#000000"> %66 = load i32, i32* %12, align 4</text>
<text text-anchor="start" x="159" y="-377.3" font-family="Times,serif" font-size="14.00" fill="#000000"> %67 = sext i32 %66 to i64</text>
<text text-anchor="start" x="159" y="-362.3" font-family="Times,serif" font-size="14.00" fill="#000000"> %68 = getelementptr inbounds [100 x i32], [100 x i32]* %65, i64 0, i64 %67</text>
<text text-anchor="start" x="159" y="-347.3" font-family="Times,serif" font-size="14.00" fill="#000000"> %69 = load i32, i32* %68, align 4</text>
<text text-anchor="start" x="159" y="-332.3" font-family="Times,serif" font-size="14.00" fill="#000000"> %70 = mul nsw i32 %61, %69</text>
<text text-anchor="start" x="159" y="-317.3" font-family="Times,serif" font-size="14.00" fill="#000000"> %71 = load [100 x i32]*, [100 x i32]** %6, align 8</text>
<text text-anchor="start" x="159" y="-302.3" font-family="Times,serif" font-size="14.00" fill="#000000"> %72 = load i32, i32* %11, align 4</text>
<text text-anchor="start" x="159" y="-287.3" font-family="Times,serif" font-size="14.00" fill="#000000"> %73 = sext i32 %72 to i64</text>
<text text-anchor="start" x="159" y="-272.3" font-family="Times,serif" font-size="14.00" fill="#000000"> %74 = getelementptr inbounds [100 x i32], [100 x i32]* %71, i64 %73</text>
<text text-anchor="start" x="159" y="-257.3" font-family="Times,serif" font-size="14.00" fill="#000000"> %75 = load i32, i32* %12, align 4</text>
<text text-anchor="start" x="159" y="-242.3" font-family="Times,serif" font-size="14.00" fill="#000000"> %76 = sext i32 %75 to i64</text>
<text text-anchor="start" x="159" y="-227.3" font-family="Times,serif" font-size="14.00" fill="#000000"> %77 = getelementptr inbounds [100 x i32], [100 x i32]* %74, i64 0, i64 %76</text>
<text text-anchor="start" x="159" y="-212.3" font-family="Times,serif" font-size="14.00" fill="#000000"> %78 = load i32, i32* %77, align 4</text>
<text text-anchor="start" x="159" y="-197.3" font-family="Times,serif" font-size="14.00" fill="#000000"> %79 = add nsw i32 %78, %70</text>
<text text-anchor="start" x="159" y="-182.3" font-family="Times,serif" font-size="14.00" fill="#000000"> store i32 %79, i32* %77, align 4</text>
<text text-anchor="start" x="159" y="-167.3" font-family="Times,serif" font-size="14.00" fill="#000000"> br label %80</text>
</g>
<!-- Node0x558dabbad9a0&#45;&gt;Node0x558dabbad9f0 -->
<g id="edge18" class="edge">
<title>Node0x558dabbad9a0:s0&#45;&gt;Node0x558dabbad9f0</title>
<path fill="none" stroke="#000000" d="M546.5,-666.5C512.5343,-666.5 485.7224,-650.6552 464.5848,-626.5379"/>
<polygon fill="#000000" stroke="#000000" points="467.2658,-624.2878 458.2054,-618.796 461.8636,-628.7393 467.2658,-624.2878"/>
</g>
<!-- Node0x558dabbada90 -->
<g id="node18" class="node">
<title>Node0x558dabbada90</title>
<polygon fill="none" stroke="#000000" points="680.5,-362 680.5,-416 774.5,-416 774.5,-362 680.5,-362"/>
<text text-anchor="start" x="688.5" y="-400.8" font-family="Times,serif" font-size="14.00" fill="#000000">%83:</text>
<text text-anchor="start" x="688.5" y="-369.8" font-family="Times,serif" font-size="14.00" fill="#000000"> br label %84</text>
</g>
<!-- Node0x558dabbad9a0&#45;&gt;Node0x558dabbada90 -->
<g id="edge19" class="edge">
<title>Node0x558dabbad9a0:s1&#45;&gt;Node0x558dabbada90</title>
<path fill="none" stroke="#000000" d="M713.5,-655.5C713.5,-573.578 720.1789,-477.6855 724.3105,-426.2031"/>
<polygon fill="#000000" stroke="#000000" points="727.8006,-426.4656 725.1251,-416.2142 720.8237,-425.8966 727.8006,-426.4656"/>
</g>
<!-- Node0x558dabbada40 -->
<g id="node19" class="node">
<title>Node0x558dabbada40</title>
<polygon fill="none" stroke="#000000" points="363.5,-23.5 363.5,-122.5 585.5,-122.5 585.5,-23.5 363.5,-23.5"/>
<text text-anchor="start" x="371.5" y="-107.3" font-family="Times,serif" font-size="14.00" fill="#000000">%80:</text>
<text text-anchor="start" x="371.5" y="-76.3" font-family="Times,serif" font-size="14.00" fill="#000000"> %81 = load i32, i32* %13, align 4</text>
<text text-anchor="start" x="371.5" y="-61.3" font-family="Times,serif" font-size="14.00" fill="#000000"> %82 = add nsw i32 %81, 1</text>
<text text-anchor="start" x="371.5" y="-46.3" font-family="Times,serif" font-size="14.00" fill="#000000"> store i32 %82, i32* %13, align 4</text>
<text text-anchor="start" x="371.5" y="-31.3" font-family="Times,serif" font-size="14.00" fill="#000000"> br label %49</text>
</g>
<!-- Node0x558dabbad9f0&#45;&gt;Node0x558dabbada40 -->
<g id="edge20" class="edge">
<title>Node0x558dabbad9f0&#45;&gt;Node0x558dabbada40</title>
<path fill="none" stroke="#000000" d="M450.7269,-159.3484C453.3124,-149.9574 455.7799,-140.9948 458.0798,-132.6413"/>
<polygon fill="#000000" stroke="#000000" points="461.5185,-133.3365 460.7986,-122.7661 454.7696,-131.4783 461.5185,-133.3365"/>
</g>
<!-- Node0x558dabbadae0 -->
<g id="node20" class="node">
<title>Node0x558dabbadae0</title>
<polygon fill="none" stroke="#000000" points="653.5,-23.5 653.5,-122.5 875.5,-122.5 875.5,-23.5 653.5,-23.5"/>
<text text-anchor="start" x="661.5" y="-107.3" font-family="Times,serif" font-size="14.00" fill="#000000">%84:</text>
<text text-anchor="start" x="661.5" y="-76.3" font-family="Times,serif" font-size="14.00" fill="#000000"> %85 = load i32, i32* %12, align 4</text>
<text text-anchor="start" x="661.5" y="-61.3" font-family="Times,serif" font-size="14.00" fill="#000000"> %86 = add nsw i32 %85, 1</text>
<text text-anchor="start" x="661.5" y="-46.3" font-family="Times,serif" font-size="14.00" fill="#000000"> store i32 %86, i32* %12, align 4</text>
<text text-anchor="start" x="661.5" y="-31.3" font-family="Times,serif" font-size="14.00" fill="#000000"> br label %44</text>
</g>
<!-- Node0x558dabbada90&#45;&gt;Node0x558dabbadae0 -->
<g id="edge22" class="edge">
<title>Node0x558dabbada90&#45;&gt;Node0x558dabbadae0</title>
<path fill="none" stroke="#000000" d="M730.6866,-361.7845C736.6139,-311.1623 749.4605,-201.4456 757.5016,-132.7703"/>
<polygon fill="#000000" stroke="#000000" points="761.0136,-132.8713 758.7004,-122.5321 754.0611,-132.0572 761.0136,-132.8713"/>
</g>
<!-- Node0x558dabbada40&#45;&gt;Node0x558dabbad9a0 -->
<g id="edge21" class="edge">
<title>Node0x558dabbada40&#45;&gt;Node0x558dabbad9a0</title>
<path fill="none" stroke="#000000" d="M585.5717,-114.1193C604.0941,-125.8428 620.9966,-140.5936 632.5,-159 681.9179,-238.0729 671.1553,-513.4178 662.7728,-645.1789"/>
<polygon fill="#000000" stroke="#000000" points="659.2789,-644.9727 662.1236,-655.1784 666.2642,-645.4262 659.2789,-644.9727"/>
</g>
<!-- Node0x558dabbadae0&#45;&gt;Node0x558dabbad900 -->
<g id="edge23" class="edge">
<title>Node0x558dabbadae0&#45;&gt;Node0x558dabbad900</title>
<path fill="none" stroke="#000000" d="M777.0932,-122.7548C779.6363,-134.5642 781.99,-147.1693 783.5,-159 818.7102,-434.8682 817.7222,-766.6821 815.2249,-909.9188"/>
<polygon fill="#000000" stroke="#000000" points="811.7183,-910.2519 815.0351,-920.3142 818.7172,-910.3798 811.7183,-910.2519"/>
</g>
<!-- Node0x558dabbadb80&#45;&gt;Node0x558dabbad860 -->
<g id="edge25" class="edge">
<title>Node0x558dabbadb80&#45;&gt;Node0x558dabbad860</title>
<path fill="none" stroke="#000000" d="M946.8184,-766.2323C945.2168,-861.1873 940.1692,-1074.8158 925.5,-1254 924.7973,-1262.5833 923.9049,-1271.574 922.9251,-1280.4774"/>
<polygon fill="#000000" stroke="#000000" points="919.4416,-1280.1342 921.787,-1290.4661 926.3966,-1280.9267 919.4416,-1280.1342"/>
</g>
</g>
</svg>
