<?xml version="1.0" encoding="UTF-8" standalone="no"?>
<!DOCTYPE svg PUBLIC "-//W3C//DTD SVG 1.1//EN"
 "http://www.w3.org/Graphics/SVG/1.1/DTD/svg11.dtd">
<!-- Generated by graphviz version 2.40.1 (20161225.0304)
 -->
<!-- Title: %3 Pages: 1 -->
<svg width="244pt" height="1022pt"
 viewBox="0.00 0.00 244.37 1022.00" xmlns="http://www.w3.org/2000/svg" xmlns:xlink="http://www.w3.org/1999/xlink">
<g id="graph0" class="graph" transform="scale(1 1) rotate(0) translate(4 1018)">
<title>%3</title>
<polygon fill="#ffffff" stroke="transparent" points="-4,4 -4,-1018 240.3656,-1018 240.3656,4 -4,4"/>
<text text-anchor="middle" x="118.1828" y="-7.8" font-family="Times,serif" font-size="14.00" fill="#000000">Flow graph of Figure 8.10</text>
<!-- entry -->
<g id="node1" class="node">
<title>entry</title>
<polygon fill="none" stroke="#000000" points="140.5,-1014 75.5,-1014 75.5,-978 140.5,-978 140.5,-1014"/>
<text text-anchor="middle" x="108" y="-992.3" font-family="Times,serif" font-size="14.00" fill="#000000">ENTRY</text>
</g>
<!-- b1 -->
<g id="node2" class="node">
<title>b1</title>
<polygon fill="none" stroke="#000000" points="135,-942 81,-942 81,-906 135,-906 135,-942"/>
<text text-anchor="start" x="89" y="-920.3" font-family="Times,serif" font-size="14.00" fill="#000000">i = 2</text>
<text text-anchor="middle" x="73" y="-945.8" font-family="Times,serif" font-size="14.00" fill="#000000">b1</text>
</g>
<!-- entry&#45;&gt;b1 -->
<g id="edge1" class="edge">
<title>entry:s&#45;&gt;b1:n</title>
<path fill="none" stroke="#000000" d="M108,-978C108,-966 108,-960.75 108,-952.125"/>
<polygon fill="#000000" stroke="#000000" points="111.5001,-952 108,-942 104.5001,-952 111.5001,-952"/>
</g>
<!-- b2 -->
<g id="node3" class="node">
<title>b2</title>
<polygon fill="none" stroke="#000000" points="164.5,-870 51.5,-870 51.5,-832 164.5,-832 164.5,-870"/>
<text text-anchor="start" x="59.5" y="-854.8" font-family="Times,serif" font-size="14.00" fill="#000000">L1:</text>
<text text-anchor="start" x="59.5" y="-839.8" font-family="Times,serif" font-size="14.00" fill="#000000"> &#160;if i &gt; n goto L2</text>
<text text-anchor="middle" x="43.5" y="-873.8" font-family="Times,serif" font-size="14.00" fill="#000000">b2</text>
</g>
<!-- b1&#45;&gt;b2 -->
<g id="edge2" class="edge">
<title>b1:s&#45;&gt;b2:n</title>
<path fill="none" stroke="#000000" d="M108,-906C108,-894 108,-888.75 108,-880.125"/>
<polygon fill="#000000" stroke="#000000" points="111.5001,-880 108,-870 104.5001,-880 111.5001,-880"/>
</g>
<!-- b3 -->
<g id="node4" class="node">
<title>b3</title>
<polygon fill="none" stroke="#000000" points="147.5,-796 50.5,-796 50.5,-743 147.5,-743 147.5,-796"/>
<text text-anchor="start" x="58.5" y="-780.8" font-family="Times,serif" font-size="14.00" fill="#000000"> &#160;a[i] = TRUE</text>
<text text-anchor="start" x="58.5" y="-765.8" font-family="Times,serif" font-size="14.00" fill="#000000"> &#160;i = i + 1</text>
<text text-anchor="start" x="58.5" y="-750.8" font-family="Times,serif" font-size="14.00" fill="#000000"> &#160;goto L1</text>
<text text-anchor="middle" x="42.5" y="-799.8" font-family="Times,serif" font-size="14.00" fill="#000000">b3</text>
</g>
<!-- b2&#45;&gt;b3 -->
<g id="edge3" class="edge">
<title>b2:s&#45;&gt;b3:n</title>
<path fill="none" stroke="#000000" d="M108,-832C108,-819.3384 102.8315,-814.5009 100.328,-805.6292"/>
<polygon fill="#000000" stroke="#000000" points="103.7703,-804.9601 99,-795.5 96.8297,-805.8702 103.7703,-804.9601"/>
</g>
<!-- b2&#45;&gt;b3 -->
<g id="edge17" class="edge">
<title>b2:nw&#45;&gt;b3:sw</title>
<path fill="none" stroke="#000000" d="M45.9817,-861.1905C41.3806,-830.812 45.5998,-738.0998 51,-743.5"/>
<polygon fill="#000000" stroke="#000000" points="43.009,-863.0434 51,-870 49.0914,-859.5785 43.009,-863.0434"/>
</g>
<!-- b4 -->
<g id="node5" class="node">
<title>b4</title>
<polygon fill="none" stroke="#000000" points="157.5,-707 74.5,-707 74.5,-639 157.5,-639 157.5,-707"/>
<text text-anchor="start" x="82.5" y="-691.8" font-family="Times,serif" font-size="14.00" fill="#000000">L2:</text>
<text text-anchor="start" x="82.5" y="-676.8" font-family="Times,serif" font-size="14.00" fill="#000000"> &#160;count = 0</text>
<text text-anchor="start" x="82.5" y="-661.8" font-family="Times,serif" font-size="14.00" fill="#000000"> &#160;s = sqrt(n)</text>
<text text-anchor="start" x="82.5" y="-646.8" font-family="Times,serif" font-size="14.00" fill="#000000"> &#160;i = 2</text>
<text text-anchor="middle" x="66.5" y="-710.8" font-family="Times,serif" font-size="14.00" fill="#000000">b4</text>
</g>
<!-- b2&#45;&gt;b4 -->
<g id="edge13" class="edge">
<title>b2:se&#45;&gt;b4:ne</title>
<path fill="none" stroke="#000000" d="M165,-832C201.8862,-795.1138 198.0392,-752.1067 164.9948,-714.4554"/>
<polygon fill="#000000" stroke="#000000" points="167.3947,-711.898 158,-707 162.2897,-716.6876 167.3947,-711.898"/>
</g>
<!-- b3&#45;&gt;b4 -->
<!-- b5 -->
<g id="node6" class="node">
<title>b5</title>
<polygon fill="none" stroke="#000000" points="171.5,-603 60.5,-603 60.5,-565 171.5,-565 171.5,-603"/>
<text text-anchor="start" x="68.5" y="-587.8" font-family="Times,serif" font-size="14.00" fill="#000000">L3:</text>
<text text-anchor="start" x="68.5" y="-572.8" font-family="Times,serif" font-size="14.00" fill="#000000"> &#160;if i &gt; s goto L4</text>
<text text-anchor="middle" x="52.5" y="-606.8" font-family="Times,serif" font-size="14.00" fill="#000000">b5</text>
</g>
<!-- b4&#45;&gt;b5 -->
<g id="edge5" class="edge">
<title>b4:s&#45;&gt;b5:n</title>
<path fill="none" stroke="#000000" d="M116,-639C116,-627 116,-621.75 116,-613.125"/>
<polygon fill="#000000" stroke="#000000" points="119.5001,-613 116,-603 112.5001,-613 119.5001,-613"/>
</g>
<!-- b6 -->
<g id="node7" class="node">
<title>b6</title>
<polygon fill="none" stroke="#000000" points="180,-529 52,-529 52,-493 180,-493 180,-529"/>
<text text-anchor="start" x="60" y="-507.3" font-family="Times,serif" font-size="14.00" fill="#000000"> &#160;if not a[i] goto L5</text>
<text text-anchor="middle" x="44" y="-532.8" font-family="Times,serif" font-size="14.00" fill="#000000">b6</text>
</g>
<!-- b5&#45;&gt;b6 -->
<g id="edge6" class="edge">
<title>b5:s&#45;&gt;b6:n</title>
<path fill="none" stroke="#000000" d="M116,-565C116,-553 116,-547.75 116,-539.125"/>
<polygon fill="#000000" stroke="#000000" points="119.5001,-539 116,-529 112.5001,-539 119.5001,-539"/>
</g>
<!-- b10 -->
<g id="node11" class="node">
<title>b10</title>
<polygon fill="none" stroke="#000000" points="159.5,-220 88.5,-220 88.5,-167 159.5,-167 159.5,-220"/>
<text text-anchor="start" x="96.5" y="-204.8" font-family="Times,serif" font-size="14.00" fill="#000000">L5:</text>
<text text-anchor="start" x="96.5" y="-189.8" font-family="Times,serif" font-size="14.00" fill="#000000"> &#160;i = i + 1</text>
<text text-anchor="start" x="96.5" y="-174.8" font-family="Times,serif" font-size="14.00" fill="#000000"> &#160;goto L3</text>
<text text-anchor="middle" x="77" y="-223.8" font-family="Times,serif" font-size="14.00" fill="#000000">b10</text>
</g>
<!-- b5&#45;&gt;b10 -->
<g id="edge19" class="edge">
<title>b5:nw&#45;&gt;b10:sw</title>
<path fill="none" stroke="#000000" d="M53.2511,-609.717C5.1708,-644.5601 0,-512.3667 0,-438 0,-438 0,-438 0,-364 0,-268.3089 20.3362,-99.8362 88,-167.5"/>
<polygon fill="#000000" stroke="#000000" points="55.7362,-612.1947 61,-603 51.1512,-606.9053 55.7362,-612.1947"/>
</g>
<!-- b11 -->
<g id="node12" class="node">
<title>b11</title>
<polygon fill="none" stroke="#000000" points="193,-131 139,-131 139,-95 193,-95 193,-131"/>
<text text-anchor="start" x="147" y="-109.3" font-family="Times,serif" font-size="14.00" fill="#000000">L4:</text>
<text text-anchor="middle" x="128" y="-134.8" font-family="Times,serif" font-size="14.00" fill="#000000">b11</text>
</g>
<!-- b5&#45;&gt;b11 -->
<g id="edge14" class="edge">
<title>b5:se&#45;&gt;b11:ne</title>
<path fill="none" stroke="#000000" d="M171,-565C215.8361,-520.1639 236,-501.4078 236,-438 236,-438 236,-438 236,-282.5 236,-216.0614 241.8498,-183.8419 200.1149,-138.4119"/>
<polygon fill="#000000" stroke="#000000" points="202.45,-135.7904 193,-131 197.4001,-140.6379 202.45,-135.7904"/>
</g>
<!-- b7 -->
<g id="node8" class="node">
<title>b7</title>
<polygon fill="none" stroke="#000000" points="163,-457 35,-457 35,-419 163,-419 163,-457"/>
<text text-anchor="start" x="43" y="-441.8" font-family="Times,serif" font-size="14.00" fill="#000000"> &#160;count = count + 1</text>
<text text-anchor="start" x="43" y="-426.8" font-family="Times,serif" font-size="14.00" fill="#000000"> &#160;j = 2 * i</text>
<text text-anchor="middle" x="27" y="-460.8" font-family="Times,serif" font-size="14.00" fill="#000000">b7</text>
</g>
<!-- b6&#45;&gt;b7 -->
<g id="edge7" class="edge">
<title>b6:s&#45;&gt;b7:n</title>
<path fill="none" stroke="#000000" d="M116,-493C116,-479.3146 105.8305,-475.8482 101.2225,-466.7933"/>
<polygon fill="#000000" stroke="#000000" points="104.6264,-465.9774 99,-457 97.8,-467.5266 104.6264,-465.9774"/>
</g>
<!-- b6&#45;&gt;b10 -->
<g id="edge15" class="edge">
<title>b6:se&#45;&gt;b10:ne</title>
<path fill="none" stroke="#000000" d="M180,-493C220.8187,-452.1813 205.0251,-281.9462 166.6186,-227.4781"/>
<polygon fill="#000000" stroke="#000000" points="169.0786,-224.9616 160,-219.5 163.6912,-229.4311 169.0786,-224.9616"/>
</g>
<!-- b8 -->
<g id="node9" class="node">
<title>b8</title>
<polygon fill="none" stroke="#000000" points="148.5,-383 35.5,-383 35.5,-345 148.5,-345 148.5,-383"/>
<text text-anchor="start" x="43.5" y="-367.8" font-family="Times,serif" font-size="14.00" fill="#000000">L6:</text>
<text text-anchor="start" x="43.5" y="-352.8" font-family="Times,serif" font-size="14.00" fill="#000000"> &#160;if j &gt; n goto L5</text>
<text text-anchor="middle" x="27.5" y="-386.8" font-family="Times,serif" font-size="14.00" fill="#000000">b8</text>
</g>
<!-- b7&#45;&gt;b8 -->
<g id="edge8" class="edge">
<title>b7:s&#45;&gt;b8:n</title>
<path fill="none" stroke="#000000" d="M99,-419C99,-406.7753 95.0625,-401.8062 93.0938,-393.2093"/>
<polygon fill="#000000" stroke="#000000" points="96.5454,-392.5702 92,-383 89.5852,-393.316 96.5454,-392.5702"/>
</g>
<!-- b9 -->
<g id="node10" class="node">
<title>b9</title>
<polygon fill="none" stroke="#000000" points="131.5,-309 28.5,-309 28.5,-256 131.5,-256 131.5,-309"/>
<text text-anchor="start" x="36.5" y="-293.8" font-family="Times,serif" font-size="14.00" fill="#000000"> &#160;a[j] = FALSE</text>
<text text-anchor="start" x="36.5" y="-278.8" font-family="Times,serif" font-size="14.00" fill="#000000"> &#160;j = j + i</text>
<text text-anchor="start" x="36.5" y="-263.8" font-family="Times,serif" font-size="14.00" fill="#000000"> &#160;goto L6</text>
<text text-anchor="middle" x="20.5" y="-312.8" font-family="Times,serif" font-size="14.00" fill="#000000">b9</text>
</g>
<!-- b8&#45;&gt;b9 -->
<g id="edge9" class="edge">
<title>b8:s&#45;&gt;b9:n</title>
<path fill="none" stroke="#000000" d="M92,-345C92,-331.9258 84.9658,-327.4858 81.6685,-318.4588"/>
<polygon fill="#000000" stroke="#000000" points="85.1044,-317.7842 80,-308.5 78.2006,-318.9409 85.1044,-317.7842"/>
</g>
<!-- b8&#45;&gt;b9 -->
<g id="edge18" class="edge">
<title>b8:nw&#45;&gt;b9:sw</title>
<path fill="none" stroke="#000000" d="M27.5397,-376.2266C20.1831,-347.535 23.8707,-252.3707 28,-256.5"/>
<polygon fill="#000000" stroke="#000000" points="25.2436,-378.8693 35,-383 29.949,-373.6867 25.2436,-378.8693"/>
</g>
<!-- b8&#45;&gt;b10 -->
<g id="edge16" class="edge">
<title>b8:se&#45;&gt;b10:ne</title>
<path fill="none" stroke="#000000" d="M149,-345C166.6308,-327.3692 177.2846,-257.2975 165.4191,-228.1952"/>
<polygon fill="#000000" stroke="#000000" points="168.2596,-226.1355 160,-219.5 162.3189,-229.838 168.2596,-226.1355"/>
</g>
<!-- b9&#45;&gt;b10 -->
<!-- b10&#45;&gt;b11 -->
<!-- exit -->
<g id="node13" class="node">
<title>exit</title>
<polygon fill="none" stroke="#000000" points="193,-59 139,-59 139,-23 193,-23 193,-59"/>
<text text-anchor="middle" x="166" y="-37.3" font-family="Times,serif" font-size="14.00" fill="#000000">EXIT</text>
</g>
<!-- b11&#45;&gt;exit -->
<g id="edge12" class="edge">
<title>b11:s&#45;&gt;exit</title>
<path fill="none" stroke="#000000" d="M166,-95C166,-86.7866 166,-77.8705 166,-69.6946"/>
<polygon fill="#000000" stroke="#000000" points="169.5001,-69.4943 166,-59.4944 162.5001,-69.4944 169.5001,-69.4943"/>
</g>
</g>
</svg>
