<?xml version="1.0" encoding="UTF-8" standalone="no"?>
<!DOCTYPE svg PUBLIC "-//W3C//DTD SVG 1.1//EN"
 "http://www.w3.org/Graphics/SVG/1.1/DTD/svg11.dtd">
<!-- Generated by graphviz version 2.40.1 (20161225.0304)
 -->
<!-- Title: %3 Pages: 1 -->
<svg width="412pt" height="1645pt"
 viewBox="0.00 0.00 411.81 1645.00" xmlns="http://www.w3.org/2000/svg" xmlns:xlink="http://www.w3.org/1999/xlink">
<g id="graph0" class="graph" transform="scale(1 1) rotate(0) translate(4 1641)">
<title>%3</title>
<polygon fill="#ffffff" stroke="transparent" points="-4,4 -4,-1641 407.8085,-1641 407.8085,4 -4,4"/>
<text text-anchor="middle" x="201.9043" y="-7.8" font-family="Times,serif" font-size="14.00" fill="#000000">Flow graph of Figure 8.10</text>
<!-- entry -->
<g id="node1" class="node">
<title>entry</title>
<polygon fill="none" stroke="#000000" points="163.8425,-1637 98.8425,-1637 98.8425,-1601 163.8425,-1601 163.8425,-1637"/>
<text text-anchor="middle" x="131.3425" y="-1615.3" font-family="Times,serif" font-size="14.00" fill="#000000">ENTRY</text>
</g>
<!-- b1 -->
<g id="node2" class="node">
<title>b1</title>
<polygon fill="none" stroke="#000000" points="158.3425,-1565 104.3425,-1565 104.3425,-1529 158.3425,-1529 158.3425,-1565"/>
<text text-anchor="start" x="112.3425" y="-1543.3" font-family="Times,serif" font-size="14.00" fill="#000000">i = 0</text>
<text text-anchor="middle" x="96.3425" y="-1568.8" font-family="Times,serif" font-size="14.00" fill="#000000">b1</text>
</g>
<!-- entry&#45;&gt;b1 -->
<g id="edge1" class="edge">
<title>entry:s&#45;&gt;b1:n</title>
<path fill="none" stroke="#000000" d="M131.3425,-1601C131.3425,-1589 131.3425,-1583.75 131.3425,-1575.125"/>
<polygon fill="#000000" stroke="#000000" points="134.8426,-1575 131.3425,-1565 127.8426,-1575 134.8426,-1575"/>
</g>
<!-- b2 -->
<g id="node3" class="node">
<title>b2</title>
<polygon fill="none" stroke="#000000" points="170.3425,-1493 92.3425,-1493 92.3425,-1440 170.3425,-1440 170.3425,-1493"/>
<text text-anchor="start" x="100.3425" y="-1477.8" font-family="Times,serif" font-size="14.00" fill="#000000">L1:</text>
<text text-anchor="start" x="100.3425" y="-1462.8" font-family="Times,serif" font-size="14.00" fill="#000000"> &#160;if i &gt;= n</text>
<text text-anchor="start" x="100.3425" y="-1447.8" font-family="Times,serif" font-size="14.00" fill="#000000"> &#160;&#160;&#160;goto L2</text>
<text text-anchor="middle" x="84.3425" y="-1496.8" font-family="Times,serif" font-size="14.00" fill="#000000">b2</text>
</g>
<!-- b1&#45;&gt;b2 -->
<g id="edge2" class="edge">
<title>b1:s&#45;&gt;b2:n</title>
<path fill="none" stroke="#000000" d="M131.3425,-1529C131.3425,-1516.8333 131.3425,-1511.5104 131.3425,-1502.7656"/>
<polygon fill="#000000" stroke="#000000" points="134.8426,-1502.5 131.3425,-1492.5 127.8426,-1502.5 134.8426,-1502.5"/>
</g>
<!-- b3 -->
<g id="node4" class="node">
<title>b3</title>
<polygon fill="none" stroke="#000000" points="158.3425,-1404 104.3425,-1404 104.3425,-1368 158.3425,-1368 158.3425,-1404"/>
<text text-anchor="start" x="112.3425" y="-1382.3" font-family="Times,serif" font-size="14.00" fill="#000000">j = 0</text>
<text text-anchor="middle" x="96.3425" y="-1407.8" font-family="Times,serif" font-size="14.00" fill="#000000">b3</text>
</g>
<!-- b2&#45;&gt;b3 -->
<g id="edge3" class="edge">
<title>b2:s&#45;&gt;b3:n</title>
<path fill="none" stroke="#000000" d="M131.3425,-1440.5C131.3425,-1428.3333 131.3425,-1423.0104 131.3425,-1414.2656"/>
<polygon fill="#000000" stroke="#000000" points="134.8426,-1414 131.3425,-1404 127.8426,-1414 134.8426,-1414"/>
</g>
<!-- b6 -->
<g id="node7" class="node">
<title>b6</title>
<polygon fill="none" stroke="#000000" points="194.8425,-1094 123.8425,-1094 123.8425,-1041 194.8425,-1041 194.8425,-1094"/>
<text text-anchor="start" x="131.8425" y="-1078.8" font-family="Times,serif" font-size="14.00" fill="#000000">L4:</text>
<text text-anchor="start" x="131.8425" y="-1063.8" font-family="Times,serif" font-size="14.00" fill="#000000"> &#160;i = i + 1</text>
<text text-anchor="start" x="131.8425" y="-1048.8" font-family="Times,serif" font-size="14.00" fill="#000000"> &#160;goto L1</text>
<text text-anchor="middle" x="115.8425" y="-1097.8" font-family="Times,serif" font-size="14.00" fill="#000000">b6</text>
</g>
<!-- b2&#45;&gt;b6 -->
<g id="edge24" class="edge">
<title>b2:nw&#45;&gt;b6:sw</title>
<path fill="none" stroke="#000000" d="M84.6127,-1499.5134C-48.5389,-1607.5915 -16.0915,-902.066 123.3425,-1041.5"/>
<polygon fill="#000000" stroke="#000000" points="87.2884,-1501.8116 92.3425,-1492.5 82.5847,-1496.6275 87.2884,-1501.8116"/>
</g>
<!-- b7 -->
<g id="node8" class="node">
<title>b7</title>
<polygon fill="none" stroke="#000000" points="242.3425,-1005 188.3425,-1005 188.3425,-967 242.3425,-967 242.3425,-1005"/>
<text text-anchor="start" x="196.3425" y="-989.8" font-family="Times,serif" font-size="14.00" fill="#000000">L2:</text>
<text text-anchor="start" x="196.3425" y="-974.8" font-family="Times,serif" font-size="14.00" fill="#000000"> &#160;i = 0</text>
<text text-anchor="middle" x="180.3425" y="-1008.8" font-family="Times,serif" font-size="14.00" fill="#000000">b7</text>
</g>
<!-- b2&#45;&gt;b7 -->
<g id="edge18" class="edge">
<title>b2:se&#45;&gt;b7:ne</title>
<path fill="none" stroke="#000000" d="M170.3425,-1440.5C223.1407,-1387.7018 270.3425,-1380.168 270.3425,-1305.5 270.3425,-1305.5 270.3425,-1305.5 270.3425,-1186.5 270.3425,-1108.3862 297.5585,-1066.4111 249.3073,-1012.358"/>
<polygon fill="#000000" stroke="#000000" points="251.7588,-1009.8564 242.3425,-1005 246.675,-1014.6685 251.7588,-1009.8564"/>
</g>
<!-- b4 -->
<g id="node5" class="node">
<title>b4</title>
<polygon fill="none" stroke="#000000" points="170.3425,-1332 92.3425,-1332 92.3425,-1279 170.3425,-1279 170.3425,-1332"/>
<text text-anchor="start" x="100.3425" y="-1316.8" font-family="Times,serif" font-size="14.00" fill="#000000">L3:</text>
<text text-anchor="start" x="100.3425" y="-1301.8" font-family="Times,serif" font-size="14.00" fill="#000000"> &#160;if j &gt;= n</text>
<text text-anchor="start" x="100.3425" y="-1286.8" font-family="Times,serif" font-size="14.00" fill="#000000"> &#160;&#160;&#160;goto L4</text>
<text text-anchor="middle" x="84.3425" y="-1335.8" font-family="Times,serif" font-size="14.00" fill="#000000">b4</text>
</g>
<!-- b3&#45;&gt;b4 -->
<g id="edge4" class="edge">
<title>b3:s&#45;&gt;b4:n</title>
<path fill="none" stroke="#000000" d="M131.3425,-1368C131.3425,-1355.8333 131.3425,-1350.5104 131.3425,-1341.7656"/>
<polygon fill="#000000" stroke="#000000" points="134.8426,-1341.5 131.3425,-1331.5 127.8426,-1341.5 134.8426,-1341.5"/>
</g>
<!-- b5 -->
<g id="node6" class="node">
<title>b5</title>
<polygon fill="none" stroke="#000000" points="203.8425,-1243 58.8425,-1243 58.8425,-1130 203.8425,-1130 203.8425,-1243"/>
<text text-anchor="start" x="66.8425" y="-1227.8" font-family="Times,serif" font-size="14.00" fill="#000000">t1 = j * 8</text>
<text text-anchor="start" x="66.8425" y="-1212.8" font-family="Times,serif" font-size="14.00" fill="#000000">t2 = i * (c.colSize * 8)</text>
<text text-anchor="start" x="66.8425" y="-1197.8" font-family="Times,serif" font-size="14.00" fill="#000000">t3 = i + j</text>
<text text-anchor="start" x="66.8425" y="-1182.8" font-family="Times,serif" font-size="14.00" fill="#000000">t4 = t2 + t3</text>
<text text-anchor="start" x="66.8425" y="-1167.8" font-family="Times,serif" font-size="14.00" fill="#000000">c[t4] = 0.0</text>
<text text-anchor="start" x="66.8425" y="-1152.8" font-family="Times,serif" font-size="14.00" fill="#000000">j = j + 1</text>
<text text-anchor="start" x="66.8425" y="-1137.8" font-family="Times,serif" font-size="14.00" fill="#000000">goto L3</text>
<text text-anchor="middle" x="50.8425" y="-1246.8" font-family="Times,serif" font-size="14.00" fill="#000000">b5</text>
</g>
<!-- b4&#45;&gt;b5 -->
<g id="edge5" class="edge">
<title>b4:s&#45;&gt;b5:n</title>
<path fill="none" stroke="#000000" d="M131.3425,-1279.5C131.3425,-1267.3333 131.3425,-1262.0104 131.3425,-1253.2656"/>
<polygon fill="#000000" stroke="#000000" points="134.8426,-1253 131.3425,-1243 127.8426,-1253 134.8426,-1253"/>
</g>
<!-- b4&#45;&gt;b5 -->
<g id="edge23" class="edge">
<title>b4:nw&#45;&gt;b5:sw</title>
<path fill="none" stroke="#000000" d="M82.1774,-1332.4216C53.7192,-1310.8203 29.5496,-1100.7071 58.3425,-1129.5"/>
<polygon fill="#000000" stroke="#000000" points="82.6994,-1335.8887 92.3425,-1331.5 82.0673,-1328.9173 82.6994,-1335.8887"/>
</g>
<!-- b4&#45;&gt;b6 -->
<g id="edge19" class="edge">
<title>b4:se&#45;&gt;b6:ne</title>
<path fill="none" stroke="#000000" d="M170.3425,-1279.5C188.0681,-1261.7744 202.813,-1265.7492 213.3425,-1243 239.971,-1185.4686 242.4625,-1145.2472 202.4274,-1100.9412"/>
<polygon fill="#000000" stroke="#000000" points="204.7729,-1098.329 195.3425,-1093.5 199.7032,-1103.1558 204.7729,-1098.329"/>
</g>
<!-- b5&#45;&gt;b6 -->
<!-- b6&#45;&gt;b7 -->
<!-- b8 -->
<g id="node9" class="node">
<title>b8</title>
<polygon fill="none" stroke="#000000" points="254.3425,-931 176.3425,-931 176.3425,-878 254.3425,-878 254.3425,-931"/>
<text text-anchor="start" x="184.3425" y="-915.8" font-family="Times,serif" font-size="14.00" fill="#000000">L5:</text>
<text text-anchor="start" x="184.3425" y="-900.8" font-family="Times,serif" font-size="14.00" fill="#000000"> &#160;if i &gt;= n</text>
<text text-anchor="middle" x="215.3425" y="-885.8" font-family="Times,serif" font-size="14.00" fill="#000000"> &#160;&#160;&#160;goto L6</text>
<text text-anchor="middle" x="168.3425" y="-934.8" font-family="Times,serif" font-size="14.00" fill="#000000">b8</text>
</g>
<!-- b7&#45;&gt;b8 -->
<g id="edge8" class="edge">
<title>b7:s&#45;&gt;b8:n</title>
<path fill="none" stroke="#000000" d="M215.3425,-967C215.3425,-954.8333 215.3425,-949.5104 215.3425,-940.7656"/>
<polygon fill="#000000" stroke="#000000" points="218.8426,-940.5 215.3425,-930.5 211.8426,-940.5 218.8426,-940.5"/>
</g>
<!-- b9 -->
<g id="node10" class="node">
<title>b9</title>
<polygon fill="none" stroke="#000000" points="242.3425,-842 188.3425,-842 188.3425,-806 242.3425,-806 242.3425,-842"/>
<text text-anchor="start" x="196.3425" y="-820.3" font-family="Times,serif" font-size="14.00" fill="#000000">j = 0</text>
<text text-anchor="middle" x="180.3425" y="-845.8" font-family="Times,serif" font-size="14.00" fill="#000000">b9</text>
</g>
<!-- b8&#45;&gt;b9 -->
<g id="edge9" class="edge">
<title>b8:s&#45;&gt;b9:n</title>
<path fill="none" stroke="#000000" d="M215.3425,-878.5C215.3425,-866.3333 215.3425,-861.0104 215.3425,-852.2656"/>
<polygon fill="#000000" stroke="#000000" points="218.8426,-852 215.3425,-842 211.8426,-852 218.8426,-852"/>
</g>
<!-- b15 -->
<g id="node16" class="node">
<title>b15</title>
<polygon fill="none" stroke="#000000" points="306.8425,-220 235.8425,-220 235.8425,-167 306.8425,-167 306.8425,-220"/>
<text text-anchor="start" x="243.8425" y="-204.8" font-family="Times,serif" font-size="14.00" fill="#000000">L8:</text>
<text text-anchor="start" x="243.8425" y="-189.8" font-family="Times,serif" font-size="14.00" fill="#000000"> &#160;i = i + 1</text>
<text text-anchor="start" x="243.8425" y="-174.8" font-family="Times,serif" font-size="14.00" fill="#000000"> &#160;goto L5</text>
<text text-anchor="middle" x="224.3425" y="-223.8" font-family="Times,serif" font-size="14.00" fill="#000000">b15</text>
</g>
<!-- b8&#45;&gt;b15 -->
<g id="edge27" class="edge">
<title>b8:nw&#45;&gt;b15:sw</title>
<path fill="none" stroke="#000000" d="M168.5811,-937.3789C106.0634,-985.5679 71.3425,-835.0932 71.3425,-743.5 71.3425,-743.5 71.3425,-743.5 71.3425,-424 71.3425,-356.345 187.5032,-119.6607 235.3425,-167.5"/>
<polygon fill="#000000" stroke="#000000" points="171.1802,-939.7521 176.3425,-930.5 166.5372,-934.5135 171.1802,-939.7521"/>
</g>
<!-- b16 -->
<g id="node17" class="node">
<title>b16</title>
<polygon fill="none" stroke="#000000" points="375.3425,-131 321.3425,-131 321.3425,-95 375.3425,-95 375.3425,-131"/>
<text text-anchor="start" x="329.3425" y="-109.3" font-family="Times,serif" font-size="14.00" fill="#000000">L6:</text>
<text text-anchor="middle" x="309.8425" y="-134.8" font-family="Times,serif" font-size="14.00" fill="#000000">b16</text>
</g>
<!-- b8&#45;&gt;b16 -->
<g id="edge20" class="edge">
<title>b8:se&#45;&gt;b16:ne</title>
<path fill="none" stroke="#000000" d="M254.3425,-878.5C316.1459,-816.6966 397.3425,-830.9031 397.3425,-743.5 397.3425,-743.5 397.3425,-743.5 397.3425,-275 397.3425,-213.798 418.5926,-180.535 382.2444,-138.4075"/>
<polygon fill="#000000" stroke="#000000" points="384.7202,-135.9304 375.3425,-131 379.5988,-140.7023 384.7202,-135.9304"/>
</g>
<!-- b10 -->
<g id="node11" class="node">
<title>b10</title>
<polygon fill="none" stroke="#000000" points="254.3425,-770 176.3425,-770 176.3425,-717 254.3425,-717 254.3425,-770"/>
<text text-anchor="start" x="184.3425" y="-754.8" font-family="Times,serif" font-size="14.00" fill="#000000">L7:</text>
<text text-anchor="start" x="184.3425" y="-739.8" font-family="Times,serif" font-size="14.00" fill="#000000"> &#160;if j &gt;= n</text>
<text text-anchor="start" x="184.3425" y="-724.8" font-family="Times,serif" font-size="14.00" fill="#000000"> &#160;&#160;&#160;goto L8</text>
<text text-anchor="middle" x="164.8425" y="-773.8" font-family="Times,serif" font-size="14.00" fill="#000000">b10</text>
</g>
<!-- b9&#45;&gt;b10 -->
<g id="edge10" class="edge">
<title>b9:s&#45;&gt;b10:n</title>
<path fill="none" stroke="#000000" d="M215.3425,-806C215.3425,-793.8333 215.3425,-788.5104 215.3425,-779.7656"/>
<polygon fill="#000000" stroke="#000000" points="218.8426,-779.5 215.3425,-769.5 211.8426,-779.5 218.8426,-779.5"/>
</g>
<!-- b11 -->
<g id="node12" class="node">
<title>b11</title>
<polygon fill="none" stroke="#000000" points="246.8425,-681 183.8425,-681 183.8425,-643 246.8425,-643 246.8425,-681"/>
<text text-anchor="start" x="191.8425" y="-665.8" font-family="Times,serif" font-size="14.00" fill="#000000">j = j + 1</text>
<text text-anchor="start" x="191.8425" y="-650.8" font-family="Times,serif" font-size="14.00" fill="#000000">k = 0</text>
<text text-anchor="middle" x="172.8425" y="-684.8" font-family="Times,serif" font-size="14.00" fill="#000000">b11</text>
</g>
<!-- b10&#45;&gt;b11 -->
<g id="edge11" class="edge">
<title>b10:s&#45;&gt;b11:n</title>
<path fill="none" stroke="#000000" d="M215.3425,-717.5C215.3425,-705.3333 215.3425,-700.0104 215.3425,-691.2656"/>
<polygon fill="#000000" stroke="#000000" points="218.8426,-691 215.3425,-681 211.8426,-691 218.8426,-691"/>
</g>
<!-- b14 -->
<g id="node15" class="node">
<title>b14</title>
<polygon fill="none" stroke="#000000" points="285.8425,-294 214.8425,-294 214.8425,-256 285.8425,-256 285.8425,-294"/>
<text text-anchor="start" x="222.8425" y="-278.8" font-family="Times,serif" font-size="14.00" fill="#000000">L10:</text>
<text text-anchor="start" x="222.8425" y="-263.8" font-family="Times,serif" font-size="14.00" fill="#000000"> &#160;goto L7</text>
<text text-anchor="middle" x="203.3425" y="-297.8" font-family="Times,serif" font-size="14.00" fill="#000000">b14</text>
</g>
<!-- b10&#45;&gt;b14 -->
<g id="edge26" class="edge">
<title>b10:nw&#45;&gt;b14:sw</title>
<path fill="none" stroke="#000000" d="M168.0553,-775.6347C105.4905,-805.0929 90.3123,-415.7281 129.3425,-330 150.0969,-284.4139 178.9247,-220.5822 214.3425,-256"/>
<polygon fill="#000000" stroke="#000000" points="170.3875,-778.2629 176.3425,-769.5 166.2226,-772.6367 170.3875,-778.2629"/>
</g>
<!-- b10&#45;&gt;b15 -->
<g id="edge21" class="edge">
<title>b10:se&#45;&gt;b15:ne</title>
<path fill="none" stroke="#000000" d="M254.3425,-717.5C308.5884,-663.2541 359.3425,-657.2153 359.3425,-580.5 359.3425,-580.5 359.3425,-580.5 359.3425,-424 359.3425,-333.699 372.6132,-289.177 314.3968,-226.7957"/>
<polygon fill="#000000" stroke="#000000" points="316.8098,-224.2561 307.3425,-219.5 311.7775,-229.1219 316.8098,-224.2561"/>
</g>
<!-- b12 -->
<g id="node13" class="node">
<title>b12</title>
<polygon fill="none" stroke="#000000" points="258.3425,-607 172.3425,-607 172.3425,-554 258.3425,-554 258.3425,-607"/>
<text text-anchor="start" x="180.3425" y="-591.8" font-family="Times,serif" font-size="14.00" fill="#000000">L9:</text>
<text text-anchor="start" x="180.3425" y="-576.8" font-family="Times,serif" font-size="14.00" fill="#000000"> &#160;if k &gt;= n</text>
<text text-anchor="start" x="180.3425" y="-561.8" font-family="Times,serif" font-size="14.00" fill="#000000"> &#160;&#160;&#160;goto L10</text>
<text text-anchor="middle" x="160.8425" y="-610.8" font-family="Times,serif" font-size="14.00" fill="#000000">b12</text>
</g>
<!-- b11&#45;&gt;b12 -->
<g id="edge12" class="edge">
<title>b11:s&#45;&gt;b12:n</title>
<path fill="none" stroke="#000000" d="M215.3425,-643C215.3425,-630.8333 215.3425,-625.5104 215.3425,-616.7656"/>
<polygon fill="#000000" stroke="#000000" points="218.8426,-616.5 215.3425,-606.5 211.8426,-616.5 218.8426,-616.5"/>
</g>
<!-- b13 -->
<g id="node14" class="node">
<title>b13</title>
<polygon fill="none" stroke="#000000" points="292.8425,-518 137.8425,-518 137.8425,-330 292.8425,-330 292.8425,-518"/>
<text text-anchor="start" x="145.8425" y="-502.8" font-family="Times,serif" font-size="14.00" fill="#000000">k = k + 1</text>
<text text-anchor="start" x="145.8425" y="-487.8" font-family="Times,serif" font-size="14.00" fill="#000000">t5 = j * 8</text>
<text text-anchor="start" x="145.8425" y="-472.8" font-family="Times,serif" font-size="14.00" fill="#000000">t6 = k * (b.colSize * 8)</text>
<text text-anchor="start" x="145.8425" y="-457.8" font-family="Times,serif" font-size="14.00" fill="#000000">t7 = t5 + t6</text>
<text text-anchor="start" x="145.8425" y="-442.8" font-family="Times,serif" font-size="14.00" fill="#000000">t8 = k * 8</text>
<text text-anchor="start" x="145.8425" y="-427.8" font-family="Times,serif" font-size="14.00" fill="#000000">t9 = i * (a.colSize * 8)</text>
<text text-anchor="start" x="145.8425" y="-412.8" font-family="Times,serif" font-size="14.00" fill="#000000">t10 = t9 + t8</text>
<text text-anchor="start" x="145.8425" y="-397.8" font-family="Times,serif" font-size="14.00" fill="#000000">t11 = i * ( c.colSize * 8)</text>
<text text-anchor="start" x="145.8425" y="-382.8" font-family="Times,serif" font-size="14.00" fill="#000000">t12 = &#160;t11 + t5</text>
<text text-anchor="start" x="145.8425" y="-367.8" font-family="Times,serif" font-size="14.00" fill="#000000">t13 = a[10] * b[t7]</text>
<text text-anchor="start" x="145.8425" y="-352.8" font-family="Times,serif" font-size="14.00" fill="#000000">c[t12] = c[t12] + t13</text>
<text text-anchor="start" x="145.8425" y="-337.8" font-family="Times,serif" font-size="14.00" fill="#000000">goto L9</text>
<text text-anchor="middle" x="126.3425" y="-521.8" font-family="Times,serif" font-size="14.00" fill="#000000">b13</text>
</g>
<!-- b12&#45;&gt;b13 -->
<g id="edge13" class="edge">
<title>b12:s&#45;&gt;b13:n</title>
<path fill="none" stroke="#000000" d="M215.3425,-554.5C215.3425,-542.3333 215.3425,-537.0104 215.3425,-528.2656"/>
<polygon fill="#000000" stroke="#000000" points="218.8426,-528 215.3425,-518 211.8426,-528 218.8426,-528"/>
</g>
<!-- b12&#45;&gt;b13 -->
<g id="edge25" class="edge">
<title>b12:nw&#45;&gt;b13:sw</title>
<path fill="none" stroke="#000000" d="M164.2239,-612.4417C143.0285,-621.1018 144.9008,-555.2662 137.8425,-518 130.0679,-476.9518 107.8011,-300.4585 137.3425,-330"/>
<polygon fill="#000000" stroke="#000000" points="166.3399,-615.2304 172.3425,-606.5 162.2057,-609.5816 166.3399,-615.2304"/>
</g>
<!-- b12&#45;&gt;b14 -->
<g id="edge22" class="edge">
<title>b12:se&#45;&gt;b14:ne</title>
<path fill="none" stroke="#000000" d="M258.3425,-554.5C276.3089,-536.5336 291.5397,-540.9974 302.3425,-518 343.2864,-430.8373 356.0272,-369.0451 293.4816,-301.4173"/>
<polygon fill="#000000" stroke="#000000" points="295.7989,-298.7778 286.3425,-294 290.7555,-303.632 295.7989,-298.7778"/>
</g>
<!-- b13&#45;&gt;b14 -->
<!-- b14&#45;&gt;b15 -->
<!-- b15&#45;&gt;b16 -->
<!-- exit -->
<g id="node18" class="node">
<title>exit</title>
<polygon fill="none" stroke="#000000" points="375.3425,-59 321.3425,-59 321.3425,-23 375.3425,-23 375.3425,-59"/>
<text text-anchor="middle" x="348.3425" y="-37.3" font-family="Times,serif" font-size="14.00" fill="#000000">EXIT</text>
</g>
<!-- b16&#45;&gt;exit -->
<g id="edge17" class="edge">
<title>b16:s&#45;&gt;exit:n</title>
<path fill="none" stroke="#000000" d="M348.3425,-95C348.3425,-83 348.3425,-77.75 348.3425,-69.125"/>
<polygon fill="#000000" stroke="#000000" points="351.8426,-69 348.3425,-59 344.8426,-69 351.8426,-69"/>
</g>
</g>
</svg>
