<?xml version="1.0" encoding="UTF-8" standalone="no"?>
<!DOCTYPE svg PUBLIC "-//W3C//DTD SVG 1.1//EN"
 "http://www.w3.org/Graphics/SVG/1.1/DTD/svg11.dtd">
<!-- Generated by graphviz version 2.40.1 (20161225.0304)
 -->
<!-- Title: %3 Pages: 1 -->
<svg width="206pt" height="203pt"
 viewBox="0.00 0.00 206.00 203.00" xmlns="http://www.w3.org/2000/svg" xmlns:xlink="http://www.w3.org/1999/xlink">
<g id="graph0" class="graph" transform="scale(1 1) rotate(0) translate(4 199)">
<title>%3</title>
<polygon fill="#ffffff" stroke="transparent" points="-4,4 -4,-199 202,-199 202,4 -4,4"/>
<!-- b0 -->
<g id="node1" class="node">
<title>b0</title>
<text text-anchor="middle" x="99" y="-14.3" font-family="Times,serif" font-size="14.00" fill="#000000">b0</text>
</g>
<!-- c0 -->
<g id="node2" class="node">
<title>c0</title>
<text text-anchor="middle" x="27" y="-14.3" font-family="Times,serif" font-size="14.00" fill="#000000">c0</text>
</g>
<!-- d1 -->
<g id="node3" class="node">
<title>d1</title>
<ellipse fill="none" stroke="#000000" cx="72" cy="-90" rx="18" ry="18"/>
<text text-anchor="middle" x="72" y="-86.3" font-family="Times,serif" font-size="14.00" fill="#000000">*</text>
<text text-anchor="middle" x="42.5" y="-111.8" font-family="Times,serif" font-size="14.00" fill="#000000">d, b</text>
</g>
<!-- d1&#45;&gt;b0 -->
<g id="edge1" class="edge">
<title>d1&#45;&gt;b0</title>
<path fill="none" stroke="#000000" d="M78.3986,-72.937C82.5467,-61.8755 87.9452,-47.4794 92.1753,-36.1992"/>
</g>
<!-- d1&#45;&gt;c0 -->
<g id="edge2" class="edge">
<title>d1&#45;&gt;c0</title>
<path fill="none" stroke="#000000" d="M62.4567,-74.7307C55.3876,-63.4202 45.7301,-47.9682 38.2792,-36.0467"/>
</g>
<!-- a0 -->
<g id="node4" class="node">
<title>a0</title>
<text text-anchor="middle" x="171" y="-14.3" font-family="Times,serif" font-size="14.00" fill="#000000">a0</text>
</g>
<!-- e1 -->
<g id="node5" class="node">
<title>e1</title>
<ellipse fill="none" stroke="#000000" cx="126" cy="-90" rx="18" ry="18"/>
<text text-anchor="middle" x="126" y="-86.3" font-family="Times,serif" font-size="14.00" fill="#000000">+</text>
<text text-anchor="middle" x="104.5" y="-111.8" font-family="Times,serif" font-size="14.00" fill="#000000">e</text>
</g>
<!-- e1&#45;&gt;b0 -->
<g id="edge4" class="edge">
<title>e1&#45;&gt;b0</title>
<path fill="none" stroke="#000000" d="M119.6014,-72.937C115.4533,-61.8755 110.0548,-47.4794 105.8247,-36.1992"/>
</g>
<!-- e1&#45;&gt;a0 -->
<g id="edge3" class="edge">
<title>e1&#45;&gt;a0</title>
<path fill="none" stroke="#000000" d="M135.5433,-74.7307C142.6124,-63.4202 152.2699,-47.9682 159.7208,-36.0467"/>
</g>
<!-- a1 -->
<g id="node6" class="node">
<title>a1</title>
<ellipse fill="none" stroke="#000000" cx="99" cy="-162" rx="18" ry="18"/>
<text text-anchor="middle" x="99" y="-158.3" font-family="Times,serif" font-size="14.00" fill="#000000">&#45;</text>
<text text-anchor="middle" x="77.5" y="-183.8" font-family="Times,serif" font-size="14.00" fill="#000000">a</text>
</g>
<!-- a1&#45;&gt;d1 -->
<g id="edge6" class="edge">
<title>a1&#45;&gt;d1</title>
<path fill="none" stroke="#000000" d="M92.6014,-144.937C88.2974,-133.4596 82.6471,-118.3922 78.3527,-106.9405"/>
</g>
<!-- a1&#45;&gt;e1 -->
<g id="edge5" class="edge">
<title>a1&#45;&gt;e1</title>
<path fill="none" stroke="#000000" d="M105.3986,-144.937C109.7026,-133.4596 115.3529,-118.3922 119.6473,-106.9405"/>
</g>
</g>
</svg>
