<?xml version="1.0" encoding="UTF-8" standalone="no"?>
<!DOCTYPE svg PUBLIC "-//W3C//DTD SVG 1.1//EN"
 "http://www.w3.org/Graphics/SVG/1.1/DTD/svg11.dtd">
<!-- Generated by graphviz version 2.40.1 (20161225.0304)
 -->
<!-- Title: %3 Pages: 1 -->
<svg width="310pt" height="277pt"
 viewBox="0.00 0.00 310.00 277.30" xmlns="http://www.w3.org/2000/svg" xmlns:xlink="http://www.w3.org/1999/xlink">
<g id="graph0" class="graph" transform="scale(1 1) rotate(0) translate(4 273.2953)">
<title>%3</title>
<polygon fill="#ffffff" stroke="transparent" points="-4,4 -4,-273.2953 306,-273.2953 306,4 -4,4"/>
<!-- i0 -->
<g id="node1" class="node">
<title>i0</title>
<text text-anchor="middle" x="93" y="-14.3" font-family="Times,serif" font-size="14.00" fill="#000000">i0</text>
</g>
<!-- c1 -->
<g id="node2" class="node">
<title>c1</title>
<text text-anchor="middle" x="165" y="-14.3" font-family="Times,serif" font-size="14.00" fill="#000000">1</text>
</g>
<!-- i0&#45;&gt;c1 -->
<!-- i0&#45;&gt;c1 -->
<!-- t5 -->
<g id="node3" class="node">
<title>t5</title>
<ellipse fill="none" stroke="#000000" cx="228" cy="-90" rx="18" ry="18"/>
<text text-anchor="middle" x="228" y="-86.3" font-family="Times,serif" font-size="14.00" fill="#000000">&#45;</text>
<text text-anchor="middle" x="204" y="-111.8" font-family="Times,serif" font-size="14.00" fill="#000000">t5</text>
</g>
<!-- t5&#45;&gt;i0 -->
<g id="edge1" class="edge">
<title>t5&#45;&gt;i0</title>
<path fill="none" stroke="#000000" d="M213.0735,-79.5709C209.2017,-76.9988 204.9955,-74.3187 201,-72 200.7564,-71.8586 152.0872,-47.5307 120.1743,-31.5808"/>
</g>
<!-- t5&#45;&gt;c1 -->
<g id="edge2" class="edge">
<title>t5&#45;&gt;c1</title>
<path fill="none" stroke="#000000" d="M215.853,-76.1177C205.9128,-64.7575 191.7748,-48.5998 180.9281,-36.2035"/>
</g>
<!-- c2 -->
<g id="node4" class="node">
<title>c2</title>
<text text-anchor="middle" x="165" y="-86.3" font-family="Times,serif" font-size="14.00" fill="#000000">88</text>
</g>
<!-- c2&#45;&gt;t5 -->
<!-- t6 -->
<g id="node5" class="node">
<title>t6</title>
<ellipse fill="none" stroke="#000000" cx="212" cy="-170.6476" rx="18" ry="18"/>
<text text-anchor="middle" x="212" y="-166.9476" font-family="Times,serif" font-size="14.00" fill="#000000">*</text>
<text text-anchor="middle" x="188" y="-192.4476" font-family="Times,serif" font-size="14.00" fill="#000000">t6</text>
</g>
<!-- t6&#45;&gt;t5 -->
<g id="edge5" class="edge">
<title>t6&#45;&gt;t5</title>
<path fill="none" stroke="#000000" d="M215.5509,-152.7493C218.2024,-139.3846 221.8099,-121.2009 224.459,-107.8483"/>
</g>
<!-- t6&#45;&gt;c2 -->
<g id="edge4" class="edge">
<title>t6&#45;&gt;c2</title>
<path fill="none" stroke="#000000" d="M202.7143,-154.7143C194.9026,-141.3101 183.7343,-122.1463 175.5788,-108.1523"/>
</g>
<!-- c3 -->
<g id="node7" class="node">
<title>c3</title>
<text text-anchor="middle" x="275" y="-166.9476" font-family="Times,serif" font-size="14.00" fill="#000000">1.0</text>
</g>
<!-- t6&#45;&gt;c3 -->
<!-- a -->
<g id="node6" class="node">
<title>a</title>
<text text-anchor="middle" x="149" y="-166.9476" font-family="Times,serif" font-size="14.00" fill="#000000">a</text>
</g>
<!-- a&#45;&gt;t6 -->
<!-- arr1 -->
<g id="node8" class="node">
<title>arr1</title>
<ellipse fill="none" stroke="#000000" cx="212" cy="-251.2953" rx="27" ry="18"/>
<text text-anchor="middle" x="212" y="-247.5953" font-family="Times,serif" font-size="14.00" fill="#000000">[]=</text>
</g>
<!-- arr1&#45;&gt;t6 -->
<g id="edge8" class="edge">
<title>arr1&#45;&gt;t6</title>
<path fill="none" stroke="#000000" d="M212,-232.9951C212,-219.7966 212,-202.0572 212,-188.8754"/>
</g>
<!-- arr1&#45;&gt;a -->
<g id="edge7" class="edge">
<title>arr1&#45;&gt;a</title>
<path fill="none" stroke="#000000" d="M199.251,-234.975C188.8242,-221.6274 174.0876,-202.7629 163.2686,-188.9132"/>
</g>
<!-- arr1&#45;&gt;c3 -->
<g id="edge9" class="edge">
<title>arr1&#45;&gt;c3</title>
<path fill="none" stroke="#000000" d="M224.749,-234.975C235.1758,-221.6274 249.9124,-202.7629 260.7314,-188.9132"/>
</g>
<!-- i1 -->
<g id="node9" class="node">
<title>i1</title>
<ellipse fill="none" stroke="#000000" cx="30" cy="-90" rx="18" ry="18"/>
<text text-anchor="middle" x="30" y="-86.3" font-family="Times,serif" font-size="14.00" fill="#000000">+</text>
<text text-anchor="middle" x="6" y="-111.8" font-family="Times,serif" font-size="14.00" fill="#000000">i1</text>
</g>
<!-- i1&#45;&gt;i0 -->
<g id="edge12" class="edge">
<title>i1&#45;&gt;i0</title>
<path fill="none" stroke="#000000" d="M42.147,-76.1177C52.0872,-64.7575 66.2252,-48.5998 77.0719,-36.2035"/>
</g>
<!-- i1&#45;&gt;c1 -->
<g id="edge13" class="edge">
<title>i1&#45;&gt;c1</title>
<path fill="none" stroke="#000000" d="M44.9265,-79.5709C48.7983,-76.9988 53.0045,-74.3187 57,-72 57.2436,-71.8586 105.9128,-47.5307 137.8257,-31.5808"/>
</g>
<!-- c4 -->
<g id="node10" class="node">
<title>c4</title>
<text text-anchor="middle" x="93" y="-86.3" font-family="Times,serif" font-size="14.00" fill="#000000">10</text>
</g>
<!-- i1&#45;&gt;c4 -->
<!-- tmp -->
<g id="node11" class="node">
<title>tmp</title>
<ellipse fill="none" stroke="#000000" cx="61" cy="-170.6476" rx="26.7961" ry="26.7961"/>
<text text-anchor="middle" x="61" y="-166.9476" font-family="Times,serif" font-size="14.00" fill="#000000">cmp</text>
<text text-anchor="middle" x="22.8524" y="-201.0953" font-family="Times,serif" font-size="14.00" fill="#000000">tmp</text>
</g>
<!-- tmp&#45;&gt;i1 -->
<g id="edge15" class="edge">
<title>tmp&#45;&gt;i1</title>
<path fill="none" stroke="#000000" d="M51.3613,-145.5723C46.5269,-132.9953 40.8003,-118.0974 36.4939,-106.8941"/>
</g>
<!-- tmp&#45;&gt;c4 -->
<g id="edge16" class="edge">
<title>tmp&#45;&gt;c4</title>
<path fill="none" stroke="#000000" d="M70.9496,-145.5723C75.7565,-133.4577 81.4179,-119.1897 85.8005,-108.1444"/>
</g>
</g>
</svg>
