<?xml version="1.0" encoding="UTF-8" standalone="no"?>
<!DOCTYPE svg PUBLIC "-//W3C//DTD SVG 1.1//EN"
 "http://www.w3.org/Graphics/SVG/1.1/DTD/svg11.dtd">
<!-- Generated by graphviz version 2.40.1 (20161225.0304)
 -->
<!-- Title: %3 Pages: 1 -->
<svg width="278pt" height="421pt"
 viewBox="0.00 0.00 278.00 421.30" xmlns="http://www.w3.org/2000/svg" xmlns:xlink="http://www.w3.org/1999/xlink">
<g id="graph0" class="graph" transform="scale(1 1) rotate(0) translate(4 417.2953)">
<title>%3</title>
<polygon fill="#ffffff" stroke="transparent" points="-4,4 -4,-417.2953 274,-417.2953 274,4 -4,4"/>
<!-- i0 -->
<g id="node1" class="node">
<title>i0</title>
<text text-anchor="middle" x="127" y="-14.3" font-family="Times,serif" font-size="14.00" fill="#000000">i0</text>
</g>
<!-- c1 -->
<g id="node2" class="node">
<title>c1</title>
<text text-anchor="middle" x="55" y="-14.3" font-family="Times,serif" font-size="14.00" fill="#000000">10</text>
</g>
<!-- c1&#45;&gt;i0 -->
<!-- t1 -->
<g id="node3" class="node">
<title>t1</title>
<ellipse fill="none" stroke="#000000" cx="91" cy="-90" rx="18" ry="18"/>
<text text-anchor="middle" x="91" y="-86.3" font-family="Times,serif" font-size="14.00" fill="#000000">*</text>
<text text-anchor="middle" x="67" y="-111.8" font-family="Times,serif" font-size="14.00" fill="#000000">t1</text>
</g>
<!-- t1&#45;&gt;i0 -->
<g id="edge1" class="edge">
<title>t1&#45;&gt;i0</title>
<path fill="none" stroke="#000000" d="M99.169,-73.6621C104.7701,-62.4597 112.2034,-47.5932 117.9788,-36.0423"/>
</g>
<!-- t1&#45;&gt;c1 -->
<g id="edge2" class="edge">
<title>t1&#45;&gt;c1</title>
<path fill="none" stroke="#000000" d="M82.831,-73.6621C77.2299,-62.4597 69.7966,-47.5932 64.0212,-36.0423"/>
</g>
<!-- j0 -->
<g id="node4" class="node">
<title>j0</title>
<text text-anchor="middle" x="154" y="-86.3" font-family="Times,serif" font-size="14.00" fill="#000000">j0</text>
</g>
<!-- t1&#45;&gt;j0 -->
<!-- c6 -->
<g id="node13" class="node">
<title>c6</title>
<text text-anchor="middle" x="226" y="-86.3" font-family="Times,serif" font-size="14.00" fill="#000000">1</text>
</g>
<!-- j0&#45;&gt;c6 -->
<!-- t2 -->
<g id="node5" class="node">
<title>t2</title>
<ellipse fill="none" stroke="#000000" cx="95" cy="-162" rx="18" ry="18"/>
<text text-anchor="middle" x="95" y="-158.3" font-family="Times,serif" font-size="14.00" fill="#000000">+</text>
<text text-anchor="middle" x="71" y="-183.8" font-family="Times,serif" font-size="14.00" fill="#000000">t2</text>
</g>
<!-- t2&#45;&gt;t1 -->
<g id="edge4" class="edge">
<title>t2&#45;&gt;t1</title>
<path fill="none" stroke="#000000" d="M93.9906,-143.8314C93.3889,-133 92.6271,-119.2876 92.023,-108.4133"/>
</g>
<!-- t2&#45;&gt;j0 -->
<g id="edge5" class="edge">
<title>t2&#45;&gt;j0</title>
<path fill="none" stroke="#000000" d="M106.6565,-147.7751C115.9925,-136.382 129.1478,-120.3281 139.2224,-108.0336"/>
</g>
<!-- c2 -->
<g id="node6" class="node">
<title>c2</title>
<text text-anchor="middle" x="32" y="-158.3" font-family="Times,serif" font-size="14.00" fill="#000000">8</text>
</g>
<!-- c2&#45;&gt;t2 -->
<!-- t3 -->
<g id="node7" class="node">
<title>t3</title>
<ellipse fill="none" stroke="#000000" cx="59" cy="-242.6476" rx="18" ry="18"/>
<text text-anchor="middle" x="59" y="-238.9476" font-family="Times,serif" font-size="14.00" fill="#000000">*</text>
<text text-anchor="middle" x="35" y="-264.4476" font-family="Times,serif" font-size="14.00" fill="#000000">t3</text>
</g>
<!-- t3&#45;&gt;t2 -->
<g id="edge8" class="edge">
<title>t3&#45;&gt;t2</title>
<path fill="none" stroke="#000000" d="M66.4592,-225.9374C72.6377,-212.0963 81.3745,-192.524 87.5503,-178.6888"/>
</g>
<!-- t3&#45;&gt;c2 -->
<g id="edge7" class="edge">
<title>t3&#45;&gt;c2</title>
<path fill="none" stroke="#000000" d="M53.274,-225.5443C48.8158,-212.2281 42.6419,-193.7868 38.093,-180.1995"/>
</g>
<!-- c4 -->
<g id="node8" class="node">
<title>c4</title>
<text text-anchor="middle" x="122" y="-238.9476" font-family="Times,serif" font-size="14.00" fill="#000000">88</text>
</g>
<!-- t3&#45;&gt;c4 -->
<!-- t4 -->
<g id="node9" class="node">
<title>t4</title>
<ellipse fill="none" stroke="#000000" cx="90" cy="-323.2953" rx="18" ry="18"/>
<text text-anchor="middle" x="90" y="-319.5953" font-family="Times,serif" font-size="14.00" fill="#000000">&#45;</text>
<text text-anchor="middle" x="66" y="-345.0953" font-family="Times,serif" font-size="14.00" fill="#000000">t4</text>
</g>
<!-- t4&#45;&gt;t3 -->
<g id="edge10" class="edge">
<title>t4&#45;&gt;t3</title>
<path fill="none" stroke="#000000" d="M83.4257,-306.192C78.1293,-292.4133 70.7238,-273.1476 65.4585,-259.4497"/>
</g>
<!-- t4&#45;&gt;c4 -->
<g id="edge11" class="edge">
<title>t4&#45;&gt;c4</title>
<path fill="none" stroke="#000000" d="M96.7864,-306.192C102.0701,-292.8757 109.3874,-274.4344 114.7787,-260.8471"/>
</g>
<!-- c5 -->
<g id="node11" class="node">
<title>c5</title>
<text text-anchor="middle" x="153" y="-319.5953" font-family="Times,serif" font-size="14.00" fill="#000000">0.0</text>
</g>
<!-- t4&#45;&gt;c5 -->
<!-- arr1 -->
<g id="node10" class="node">
<title>arr1</title>
<ellipse fill="none" stroke="#000000" cx="90" cy="-395.2953" rx="27" ry="18"/>
<text text-anchor="middle" x="90" y="-391.5953" font-family="Times,serif" font-size="14.00" fill="#000000">[]=</text>
</g>
<!-- arr1&#45;&gt;t4 -->
<g id="edge14" class="edge">
<title>arr1&#45;&gt;t4</title>
<path fill="none" stroke="#000000" d="M90,-377.1266C90,-366.2953 90,-352.5828 90,-341.7085"/>
</g>
<!-- arr1&#45;&gt;c5 -->
<g id="edge15" class="edge">
<title>arr1&#45;&gt;c5</title>
<path fill="none" stroke="#000000" d="M103.6701,-379.6723C113.5135,-368.4227 126.8205,-353.2147 137.1329,-341.429"/>
</g>
<!-- a -->
<g id="node12" class="node">
<title>a</title>
<text text-anchor="middle" x="27" y="-319.5953" font-family="Times,serif" font-size="14.00" fill="#000000">a</text>
</g>
<!-- arr1&#45;&gt;a -->
<g id="edge13" class="edge">
<title>arr1&#45;&gt;a</title>
<path fill="none" stroke="#000000" d="M76.3299,-379.6723C66.4865,-368.4227 53.1795,-353.2147 42.8671,-341.429"/>
</g>
<!-- a&#45;&gt;t4 -->
<!-- j1 -->
<g id="node14" class="node">
<title>j1</title>
<ellipse fill="none" stroke="#000000" cx="180" cy="-162" rx="18" ry="18"/>
<text text-anchor="middle" x="180" y="-158.3" font-family="Times,serif" font-size="14.00" fill="#000000">+</text>
<text text-anchor="middle" x="156" y="-183.8" font-family="Times,serif" font-size="14.00" fill="#000000">j1</text>
</g>
<!-- j1&#45;&gt;j0 -->
<g id="edge18" class="edge">
<title>j1&#45;&gt;j0</title>
<path fill="none" stroke="#000000" d="M173.8384,-144.937C169.8439,-133.8755 164.6453,-119.4794 160.5719,-108.1992"/>
</g>
<!-- j1&#45;&gt;c6 -->
<g id="edge19" class="edge">
<title>j1&#45;&gt;c6</title>
<path fill="none" stroke="#000000" d="M189.7554,-146.7307C196.9816,-135.4202 206.8536,-119.9682 214.4702,-108.0467"/>
</g>
<!-- c7 -->
<g id="node15" class="node">
<title>c7</title>
<text text-anchor="middle" x="243" y="-158.3" font-family="Times,serif" font-size="14.00" fill="#000000">10</text>
</g>
<!-- j1&#45;&gt;c7 -->
<!-- tmp -->
<g id="node16" class="node">
<title>tmp</title>
<ellipse fill="none" stroke="#000000" cx="207" cy="-242.6476" rx="26.7961" ry="26.7961"/>
<text text-anchor="middle" x="207" y="-238.9476" font-family="Times,serif" font-size="14.00" fill="#000000">cmp</text>
<text text-anchor="middle" x="168.8524" y="-273.0953" font-family="Times,serif" font-size="14.00" fill="#000000">tmp</text>
</g>
<!-- tmp&#45;&gt;j1 -->
<g id="edge21" class="edge">
<title>tmp&#45;&gt;j1</title>
<path fill="none" stroke="#000000" d="M198.457,-217.1302C194.3166,-204.7628 189.4537,-190.2376 185.7591,-179.202"/>
</g>
<!-- tmp&#45;&gt;c7 -->
<g id="edge22" class="edge">
<title>tmp&#45;&gt;c7</title>
<path fill="none" stroke="#000000" d="M217.9968,-218.0125C223.4557,-205.7834 229.9327,-191.2736 234.9265,-180.0863"/>
</g>
</g>
</svg>
