<?xml version="1.0" encoding="UTF-8" standalone="no"?>
<!DOCTYPE svg PUBLIC "-//W3C//DTD SVG 1.1//EN"
 "http://www.w3.org/Graphics/SVG/1.1/DTD/svg11.dtd">
<!-- Generated by graphviz version 2.40.1 (20161225.0304)
 -->
<!-- Title: %3 Pages: 1 -->
<svg width="224pt" height="404pt"
 viewBox="0.00 0.00 224.01 404.00" xmlns="http://www.w3.org/2000/svg" xmlns:xlink="http://www.w3.org/1999/xlink">
<g id="graph0" class="graph" transform="scale(1 1) rotate(0) translate(4 400)">
<title>%3</title>
<polygon fill="#ffffff" stroke="transparent" points="-4,4 -4,-400 220.0063,-400 220.0063,4 -4,4"/>
<!-- a -->
<g id="node1" class="node">
<title>a</title>
<ellipse fill="none" stroke="#000000" cx="51.0063" cy="-306" rx="27" ry="18"/>
<text text-anchor="middle" x="51.0063" y="-302.3" font-family="Times,serif" font-size="14.00" fill="#000000">a</text>
</g>
<!-- b -->
<g id="node2" class="node">
<title>b</title>
<ellipse fill="none" stroke="#000000" cx="85.0063" cy="-162" rx="27" ry="18"/>
<text text-anchor="middle" x="85.0063" y="-158.3" font-family="Times,serif" font-size="14.00" fill="#000000">b</text>
</g>
<!-- a&#45;&#45;b -->
<g id="edge1" class="edge">
<title>a&#45;&#45;b</title>
<path fill="none" stroke="#000000" d="M55.2437,-288.0535C61.759,-260.4592 74.1682,-207.9026 80.7155,-180.1727"/>
</g>
<!-- c -->
<g id="node3" class="node">
<title>c</title>
<ellipse fill="none" stroke="#000000" cx="121.0063" cy="-18" rx="27" ry="18"/>
<text text-anchor="middle" x="121.0063" y="-14.3" font-family="Times,serif" font-size="14.00" fill="#000000">c</text>
</g>
<!-- a&#45;&#45;c -->
<g id="edge2" class="edge">
<title>a&#45;&#45;c</title>
<path fill="none" stroke="#000000" d="M43.1554,-288.7145C25.882,-247.8988 -10.7625,-143.5989 30.0063,-72 44.0051,-47.4151 74.0924,-32.8675 95.846,-25.1778"/>
</g>
<!-- d -->
<g id="node4" class="node">
<title>d</title>
<ellipse fill="none" stroke="#000000" cx="161.0063" cy="-234" rx="27" ry="18"/>
<text text-anchor="middle" x="161.0063" y="-230.3" font-family="Times,serif" font-size="14.00" fill="#000000">d</text>
</g>
<!-- a&#45;&#45;d -->
<g id="edge3" class="edge">
<title>a&#45;&#45;d</title>
<path fill="none" stroke="#000000" d="M70.4189,-293.2936C90.4024,-280.2135 121.3701,-259.9437 141.4178,-246.8216"/>
</g>
<!-- f -->
<g id="node5" class="node">
<title>f</title>
<ellipse fill="none" stroke="#000000" cx="66.0063" cy="-90" rx="27" ry="18"/>
<text text-anchor="middle" x="66.0063" y="-86.3" font-family="Times,serif" font-size="14.00" fill="#000000">f</text>
</g>
<!-- a&#45;&#45;f -->
<g id="edge4" class="edge">
<title>a&#45;&#45;f</title>
<path fill="none" stroke="#000000" d="M48.8569,-287.8853C45.716,-257.7972 41.0591,-195.7094 49.0063,-144 50.9174,-131.5654 55.1674,-118.0654 58.9396,-107.674"/>
</g>
<!-- b&#45;&#45;c -->
<g id="edge13" class="edge">
<title>b&#45;&#45;c</title>
<path fill="none" stroke="#000000" d="M91.1124,-144.1267C94.5644,-133.6689 98.8144,-120.1689 102.0063,-108 108.4891,-83.2851 114.2903,-54.3075 117.7295,-36.0499"/>
</g>
<!-- b&#45;&#45;f -->
<g id="edge14" class="edge">
<title>b&#45;&#45;f</title>
<path fill="none" stroke="#000000" d="M80.3097,-144.2022C77.3866,-133.1252 73.6401,-118.928 70.7148,-107.8425"/>
</g>
<!-- d&#45;&#45;b -->
<g id="edge5" class="edge">
<title>d&#45;&#45;b</title>
<path fill="none" stroke="#000000" d="M145.2591,-219.0816C132.2156,-206.7246 113.7713,-189.251 100.7334,-176.8993"/>
</g>
<!-- d&#45;&#45;c -->
<g id="edge6" class="edge">
<title>d&#45;&#45;c</title>
<path fill="none" stroke="#000000" d="M157.6647,-215.9555C150.1353,-175.2967 131.9135,-76.8988 124.3665,-36.1451"/>
</g>
<!-- d&#45;&#45;f -->
<g id="edge7" class="edge">
<title>d&#45;&#45;f</title>
<path fill="none" stroke="#000000" d="M155.2938,-216.0643C148.7634,-197.1265 136.8903,-166.9017 121.0063,-144 110.4057,-128.7159 95.1019,-114.1094 83.3275,-103.9506"/>
</g>
<!-- f&#45;&#45;c -->
<g id="edge12" class="edge">
<title>f&#45;&#45;c</title>
<path fill="none" stroke="#000000" d="M78.4867,-73.6621C87.4878,-61.8788 99.5856,-46.0416 108.5754,-34.2733"/>
</g>
<!-- e -->
<g id="node6" class="node">
<title>e</title>
<ellipse fill="none" stroke="#000000" cx="106.0063" cy="-378" rx="27" ry="18"/>
<text text-anchor="middle" x="106.0063" y="-374.3" font-family="Times,serif" font-size="14.00" fill="#000000">e</text>
</g>
<!-- e&#45;&#45;a -->
<g id="edge8" class="edge">
<title>e&#45;&#45;a</title>
<path fill="none" stroke="#000000" d="M93.526,-361.6621C84.5249,-349.8788 72.427,-334.0416 63.4373,-322.2733"/>
</g>
<!-- e&#45;&#45;b -->
<g id="edge15" class="edge">
<title>e&#45;&#45;b</title>
<path fill="none" stroke="#000000" d="M104.252,-359.9555C100.2991,-319.2967 90.7326,-220.8988 86.7704,-180.1451"/>
</g>
<!-- e&#45;&#45;c -->
<g id="edge9" class="edge">
<title>e&#45;&#45;c</title>
<path fill="none" stroke="#000000" d="M125.4189,-365.2572C156.9977,-342.8147 216.0063,-292.9867 216.0063,-234 216.0063,-234 216.0063,-234 216.0063,-162 216.0063,-106.2924 165.8565,-55.5183 138.4308,-31.9164"/>
</g>
<!-- e&#45;&#45;d -->
<g id="edge10" class="edge">
<title>e&#45;&#45;d</title>
<path fill="none" stroke="#000000" d="M112.7504,-360.3428C123.3064,-332.7053 143.6172,-279.5278 154.2071,-251.8017"/>
</g>
<!-- e&#45;&#45;f -->
<g id="edge11" class="edge">
<title>e&#45;&#45;f</title>
<path fill="none" stroke="#000000" d="M80.846,-370.8222C59.0924,-363.1325 29.0051,-348.5849 15.0063,-324 -26.7582,-250.6523 29.782,-146.4904 54.9832,-106.5047"/>
</g>
</g>
</svg>
