<?xml version="1.0" encoding="UTF-8" standalone="no"?>
<!DOCTYPE svg PUBLIC "-//W3C//DTD SVG 1.1//EN"
 "http://www.w3.org/Graphics/SVG/1.1/DTD/svg11.dtd">
<!-- Generated by graphviz version 2.40.1 (20161225.0304)
 -->
<!-- Title: %3 Pages: 1 -->
<svg width="210pt" height="260pt"
 viewBox="0.00 0.00 210.00 260.00" xmlns="http://www.w3.org/2000/svg" xmlns:xlink="http://www.w3.org/1999/xlink">
<g id="graph0" class="graph" transform="scale(1 1) rotate(0) translate(4 256)">
<title>%3</title>
<polygon fill="#ffffff" stroke="transparent" points="-4,4 -4,-256 206,-256 206,4 -4,4"/>
<!-- a -->
<g id="node1" class="node">
<title>a</title>
<ellipse fill="none" stroke="#000000" cx="137" cy="-162" rx="27" ry="18"/>
<text text-anchor="middle" x="137" y="-158.3" font-family="Times,serif" font-size="14.00" fill="#000000">a</text>
</g>
<!-- b -->
<g id="node2" class="node">
<title>b</title>
<ellipse fill="none" stroke="#000000" cx="101" cy="-18" rx="27" ry="18"/>
<text text-anchor="middle" x="101" y="-14.3" font-family="Times,serif" font-size="14.00" fill="#000000">b</text>
</g>
<!-- a&#45;&#45;b -->
<g id="edge1" class="edge">
<title>a&#45;&#45;b</title>
<path fill="none" stroke="#000000" d="M133.7232,-143.9501C130.284,-125.6925 124.4828,-96.7149 118,-72 114.808,-59.8311 110.558,-46.3311 107.106,-35.8733"/>
</g>
<!-- c -->
<g id="node3" class="node">
<title>c</title>
<ellipse fill="none" stroke="#000000" cx="175" cy="-18" rx="27" ry="18"/>
<text text-anchor="middle" x="175" y="-14.3" font-family="Times,serif" font-size="14.00" fill="#000000">c</text>
</g>
<!-- a&#45;&#45;c -->
<g id="edge2" class="edge">
<title>a&#45;&#45;c</title>
<path fill="none" stroke="#000000" d="M141.7359,-144.0535C149.0177,-116.4592 162.8868,-63.9026 170.2044,-36.1727"/>
</g>
<!-- d -->
<g id="node4" class="node">
<title>d</title>
<ellipse fill="none" stroke="#000000" cx="82" cy="-90" rx="27" ry="18"/>
<text text-anchor="middle" x="82" y="-86.3" font-family="Times,serif" font-size="14.00" fill="#000000">d</text>
</g>
<!-- a&#45;&#45;d -->
<g id="edge3" class="edge">
<title>a&#45;&#45;d</title>
<path fill="none" stroke="#000000" d="M124.5196,-145.6621C115.5186,-133.8788 103.4207,-118.0416 94.431,-106.2733"/>
</g>
<!-- f -->
<g id="node5" class="node">
<title>f</title>
<ellipse fill="none" stroke="#000000" cx="27" cy="-18" rx="27" ry="18"/>
<text text-anchor="middle" x="27" y="-14.3" font-family="Times,serif" font-size="14.00" fill="#000000">f</text>
</g>
<!-- a&#45;&#45;f -->
<g id="edge4" class="edge">
<title>a&#45;&#45;f</title>
<path fill="none" stroke="#000000" d="M112.6101,-153.906C91.6765,-145.6747 62.369,-130.849 46,-108 30.7477,-86.7098 27.2398,-55.7616 26.6883,-36.2673"/>
</g>
<!-- d&#45;&#45;b -->
<g id="edge5" class="edge">
<title>d&#45;&#45;b</title>
<path fill="none" stroke="#000000" d="M86.6966,-72.2022C89.6197,-61.1252 93.3662,-46.928 96.2916,-35.8425"/>
</g>
<!-- d&#45;&#45;c -->
<g id="edge6" class="edge">
<title>d&#45;&#45;c</title>
<path fill="none" stroke="#000000" d="M99.9313,-76.1177C116.3995,-63.3681 140.6729,-44.5758 157.1237,-31.8397"/>
</g>
<!-- d&#45;&#45;f -->
<g id="edge7" class="edge">
<title>d&#45;&#45;f</title>
<path fill="none" stroke="#000000" d="M69.5196,-73.6621C60.5186,-61.8788 48.4207,-46.0416 39.431,-34.2733"/>
</g>
<!-- e -->
<g id="node6" class="node">
<title>e</title>
<ellipse fill="none" stroke="#000000" cx="109" cy="-234" rx="27" ry="18"/>
<text text-anchor="middle" x="109" y="-230.3" font-family="Times,serif" font-size="14.00" fill="#000000">e</text>
</g>
<!-- e&#45;&#45;a -->
<g id="edge8" class="edge">
<title>e&#45;&#45;a</title>
<path fill="none" stroke="#000000" d="M115.778,-216.5708C120.1479,-205.3339 125.8106,-190.7727 130.1874,-179.5182"/>
</g>
<!-- e&#45;&#45;c -->
<g id="edge9" class="edge">
<title>e&#45;&#45;c</title>
<path fill="none" stroke="#000000" d="M130.2123,-222.7126C145.1941,-213.4453 164.1236,-198.7988 173,-180 195.578,-132.1834 186.0732,-67.2298 179.4307,-36.0969"/>
</g>
<!-- e&#45;&#45;d -->
<g id="edge10" class="edge">
<title>e&#45;&#45;d</title>
<path fill="none" stroke="#000000" d="M105.635,-216.0535C100.4611,-188.4592 90.6067,-135.9026 85.4074,-108.1727"/>
</g>
<!-- e&#45;&#45;f -->
<g id="edge11" class="edge">
<title>e&#45;&#45;f</title>
<path fill="none" stroke="#000000" d="M94.4823,-218.4404C74.6973,-196.0559 40.2162,-152.5375 27,-108 19.8435,-83.8832 21.6885,-54.5037 24.0434,-36.0198"/>
</g>
</g>
</svg>
