<?xml version="1.0" encoding="UTF-8" standalone="no"?>
<!DOCTYPE svg PUBLIC "-//W3C//DTD SVG 1.1//EN"
 "http://www.w3.org/Graphics/SVG/1.1/DTD/svg11.dtd">
<!-- Generated by graphviz version 2.40.1 (20161225.0304)
 -->
<!-- Title: %3 Pages: 1 -->
<svg width="278pt" height="188pt"
 viewBox="0.00 0.00 278.00 188.00" xmlns="http://www.w3.org/2000/svg" xmlns:xlink="http://www.w3.org/1999/xlink">
<g id="graph0" class="graph" transform="scale(1 1) rotate(0) translate(4 184)">
<title>%3</title>
<polygon fill="#ffffff" stroke="transparent" points="-4,4 -4,-184 274,-184 274,4 -4,4"/>
<!-- b -->
<g id="node1" class="node">
<title>b</title>
<ellipse fill="none" stroke="#000000" cx="131" cy="-90" rx="27" ry="18"/>
<text text-anchor="middle" x="131" y="-86.3" font-family="Times,serif" font-size="14.00" fill="#000000">b</text>
</g>
<!-- a -->
<g id="node2" class="node">
<title>a</title>
<ellipse fill="none" stroke="#000000" cx="27" cy="-18" rx="27" ry="18"/>
<text text-anchor="middle" x="27" y="-14.3" font-family="Times,serif" font-size="14.00" fill="#000000">a</text>
</g>
<!-- b&#45;&#45;a -->
<g id="edge1" class="edge">
<title>b&#45;&#45;a</title>
<path fill="none" stroke="#000000" d="M111.9248,-76.7941C93.1598,-63.803 64.6773,-44.0843 45.9543,-31.1222"/>
</g>
<!-- c -->
<g id="node3" class="node">
<title>c</title>
<ellipse fill="none" stroke="#000000" cx="99" cy="-18" rx="27" ry="18"/>
<text text-anchor="middle" x="99" y="-14.3" font-family="Times,serif" font-size="14.00" fill="#000000">c</text>
</g>
<!-- b&#45;&#45;c -->
<g id="edge2" class="edge">
<title>b&#45;&#45;c</title>
<path fill="none" stroke="#000000" d="M123.2537,-72.5708C118.2225,-61.2506 111.6919,-46.5568 106.675,-35.2687"/>
</g>
<!-- d -->
<g id="node4" class="node">
<title>d</title>
<ellipse fill="none" stroke="#000000" cx="171" cy="-18" rx="27" ry="18"/>
<text text-anchor="middle" x="171" y="-14.3" font-family="Times,serif" font-size="14.00" fill="#000000">d</text>
</g>
<!-- b&#45;&#45;d -->
<g id="edge3" class="edge">
<title>b&#45;&#45;d</title>
<path fill="none" stroke="#000000" d="M140.4794,-72.937C146.8558,-61.4596 155.2265,-46.3922 161.5886,-34.9405"/>
</g>
<!-- f -->
<g id="node5" class="node">
<title>f</title>
<ellipse fill="none" stroke="#000000" cx="243" cy="-18" rx="27" ry="18"/>
<text text-anchor="middle" x="243" y="-14.3" font-family="Times,serif" font-size="14.00" fill="#000000">f</text>
</g>
<!-- b&#45;&#45;f -->
<g id="edge4" class="edge">
<title>b&#45;&#45;f</title>
<path fill="none" stroke="#000000" d="M150.5089,-77.4586C170.9404,-64.324 202.8506,-43.8104 223.3389,-30.6393"/>
</g>
<!-- e -->
<g id="node6" class="node">
<title>e</title>
<ellipse fill="none" stroke="#000000" cx="131" cy="-162" rx="27" ry="18"/>
<text text-anchor="middle" x="131" y="-158.3" font-family="Times,serif" font-size="14.00" fill="#000000">e</text>
</g>
<!-- e&#45;&#45;b -->
<g id="edge6" class="edge">
<title>e&#45;&#45;b</title>
<path fill="none" stroke="#000000" d="M131,-143.8314C131,-133 131,-119.2876 131,-108.4133"/>
</g>
<!-- e&#45;&#45;a -->
<g id="edge5" class="edge">
<title>e&#45;&#45;a</title>
<path fill="none" stroke="#000000" d="M117.1182,-146.3194C107.9611,-135.7436 95.8783,-121.3369 86,-108 67.7631,-83.3779 48.6786,-53.3668 37.3169,-34.9763"/>
</g>
<!-- e&#45;&#45;c -->
<g id="edge7" class="edge">
<title>e&#45;&#45;c</title>
<path fill="none" stroke="#000000" d="M116.8771,-146.2844C108.7465,-136.1468 99.3099,-122.2347 95,-108 87.7029,-83.8994 91.1663,-54.5157 94.7416,-36.0265"/>
</g>
<!-- e&#45;&#45;d -->
<g id="edge8" class="edge">
<title>e&#45;&#45;d</title>
<path fill="none" stroke="#000000" d="M144.9012,-146.2146C152.9483,-136.0507 162.375,-122.1355 167,-108 174.8305,-84.0674 174.3938,-54.6404 172.9913,-36.0959"/>
</g>
<!-- e&#45;&#45;f -->
<g id="edge9" class="edge">
<title>e&#45;&#45;f</title>
<path fill="none" stroke="#000000" d="M147.152,-147.1554C158.1146,-136.7055 172.6273,-122.1166 184,-108 203.3398,-83.994 222.2592,-53.5454 233.266,-34.9317"/>
</g>
</g>
</svg>
