<?xml version="1.0" encoding="UTF-8" standalone="no"?>
<!DOCTYPE svg PUBLIC "-//W3C//DTD SVG 1.1//EN"
 "http://www.w3.org/Graphics/SVG/1.1/DTD/svg11.dtd">
<!-- Generated by graphviz version 2.40.1 (20161225.0304)
 -->
<!-- Title: %3 Pages: 1 -->
<svg width="278pt" height="116pt"
 viewBox="0.00 0.00 278.00 116.00" xmlns="http://www.w3.org/2000/svg" xmlns:xlink="http://www.w3.org/1999/xlink">
<g id="graph0" class="graph" transform="scale(1 1) rotate(0) translate(4 112)">
<title>%3</title>
<polygon fill="#ffffff" stroke="transparent" points="-4,4 -4,-112 274,-112 274,4 -4,4"/>
<!-- f -->
<g id="node1" class="node">
<title>f</title>
<ellipse fill="none" stroke="#000000" cx="135" cy="-90" rx="27" ry="18"/>
<text text-anchor="middle" x="135" y="-86.3" font-family="Times,serif" font-size="14.00" fill="#000000">f</text>
</g>
<!-- a -->
<g id="node2" class="node">
<title>a</title>
<ellipse fill="none" stroke="#000000" cx="27" cy="-18" rx="27" ry="18"/>
<text text-anchor="middle" x="27" y="-14.3" font-family="Times,serif" font-size="14.00" fill="#000000">a</text>
</g>
<!-- f&#45;&#45;a -->
<g id="edge1" class="edge">
<title>f&#45;&#45;a</title>
<path fill="none" stroke="#000000" d="M115.6918,-77.1278C96.0337,-64.0225 65.7386,-43.8257 46.1411,-30.7607"/>
</g>
<!-- c -->
<g id="node3" class="node">
<title>c</title>
<ellipse fill="none" stroke="#000000" cx="99" cy="-18" rx="27" ry="18"/>
<text text-anchor="middle" x="99" y="-14.3" font-family="Times,serif" font-size="14.00" fill="#000000">c</text>
</g>
<!-- f&#45;&#45;c -->
<g id="edge2" class="edge">
<title>f&#45;&#45;c</title>
<path fill="none" stroke="#000000" d="M126.2854,-72.5708C120.6253,-61.2506 113.2784,-46.5568 107.6343,-35.2687"/>
</g>
<!-- d -->
<g id="node4" class="node">
<title>d</title>
<ellipse fill="none" stroke="#000000" cx="171" cy="-18" rx="27" ry="18"/>
<text text-anchor="middle" x="171" y="-14.3" font-family="Times,serif" font-size="14.00" fill="#000000">d</text>
</g>
<!-- f&#45;&#45;d -->
<g id="edge3" class="edge">
<title>f&#45;&#45;d</title>
<path fill="none" stroke="#000000" d="M143.7146,-72.5708C149.3747,-61.2506 156.7216,-46.5568 162.3657,-35.2687"/>
</g>
<!-- e -->
<g id="node5" class="node">
<title>e</title>
<ellipse fill="none" stroke="#000000" cx="243" cy="-18" rx="27" ry="18"/>
<text text-anchor="middle" x="243" y="-14.3" font-family="Times,serif" font-size="14.00" fill="#000000">e</text>
</g>
<!-- f&#45;&#45;e -->
<g id="edge4" class="edge">
<title>f&#45;&#45;e</title>
<path fill="none" stroke="#000000" d="M154.3082,-77.1278C173.9663,-64.0225 204.2614,-43.8257 223.8589,-30.7607"/>
</g>
</g>
</svg>
