<?xml version="1.0" encoding="UTF-8" standalone="no"?>
<!DOCTYPE svg PUBLIC "-//W3C//DTD SVG 1.1//EN"
 "http://www.w3.org/Graphics/SVG/1.1/DTD/svg11.dtd">
<!-- Generated by graphviz version 2.40.1 (20161225.0304)
 -->
<!-- Title: %3 Pages: 1 -->
<svg width="476pt" height="404pt"
 viewBox="0.00 0.00 476.00 404.00" xmlns="http://www.w3.org/2000/svg" xmlns:xlink="http://www.w3.org/1999/xlink">
<g id="graph0" class="graph" transform="scale(1 1) rotate(0) translate(4 400)">
<title>%3</title>
<polygon fill="#ffffff" stroke="transparent" points="-4,4 -4,-400 472,-400 472,4 -4,4"/>
<!-- i -->
<g id="node1" class="node">
<title>i</title>
<text text-anchor="middle" x="27" y="-86.3" font-family="Times,serif" font-size="14.00" fill="#000000">Mi</text>
</g>
<!-- c3 -->
<g id="node2" class="node">
<title>c3</title>
<text text-anchor="middle" x="99" y="-86.3" font-family="Times,serif" font-size="14.00" fill="#000000">C4</text>
</g>
<!-- i&#45;&gt;c3 -->
<!-- n7 -->
<g id="node3" class="node">
<title>n7</title>
<text text-anchor="middle" x="99" y="-158.3" font-family="Times,serif" font-size="14.00" fill="#000000">*</text>
</g>
<!-- n7&#45;&gt;i -->
<g id="edge1" class="edge">
<title>n7&#45;&gt;i</title>
<path fill="none" stroke="#000000" d="M80.8314,-143.8314C70,-133 56.2876,-119.2876 45.4133,-108.4133"/>
</g>
<!-- n7&#45;&gt;c3 -->
<g id="edge2" class="edge">
<title>n7&#45;&gt;c3</title>
<path fill="none" stroke="#000000" d="M99,-143.8314C99,-133 99,-119.2876 99,-108.4133"/>
</g>
<!-- x -->
<g id="node4" class="node">
<title>x</title>
<text text-anchor="middle" x="27" y="-158.3" font-family="Times,serif" font-size="14.00" fill="#000000">Cx</text>
</g>
<!-- x&#45;&gt;n7 -->
<!-- n8 -->
<g id="node5" class="node">
<title>n8</title>
<text text-anchor="middle" x="99" y="-230.3" font-family="Times,serif" font-size="14.00" fill="#000000">+</text>
</g>
<!-- n8&#45;&gt;n7 -->
<g id="edge5" class="edge">
<title>n8&#45;&gt;n7</title>
<path fill="none" stroke="#000000" d="M99,-215.8314C99,-205 99,-191.2876 99,-180.4133"/>
</g>
<!-- n8&#45;&gt;x -->
<g id="edge4" class="edge">
<title>n8&#45;&gt;x</title>
<path fill="none" stroke="#000000" d="M80.8314,-215.8314C70,-205 56.2876,-191.2876 45.4133,-180.4133"/>
</g>
<!-- n9 -->
<g id="node6" class="node">
<title>n9</title>
<text text-anchor="middle" x="135" y="-302.3" font-family="Times,serif" font-size="14.00" fill="#000000">ind</text>
</g>
<!-- n9&#45;&gt;n8 -->
<g id="edge7" class="edge">
<title>n9&#45;&gt;n8</title>
<path fill="none" stroke="#000000" d="M125.9157,-287.8314C120.5,-277 113.6438,-263.2876 108.2066,-252.4133"/>
</g>
<!-- n10 -->
<g id="node19" class="node">
<title>n10</title>
<text text-anchor="middle" x="207" y="-302.3" font-family="Times,serif" font-size="14.00" fill="#000000">*</text>
</g>
<!-- n9&#45;&gt;n10 -->
<!-- j -->
<g id="node7" class="node">
<title>j</title>
<text text-anchor="middle" x="189" y="-14.3" font-family="Times,serif" font-size="14.00" fill="#000000">Mj</text>
</g>
<!-- c1 -->
<g id="node8" class="node">
<title>c1</title>
<text text-anchor="middle" x="261" y="-14.3" font-family="Times,serif" font-size="14.00" fill="#000000">C4</text>
</g>
<!-- j&#45;&gt;c1 -->
<!-- n1 -->
<g id="node9" class="node">
<title>n1</title>
<text text-anchor="middle" x="243" y="-86.3" font-family="Times,serif" font-size="14.00" fill="#000000">*</text>
</g>
<!-- n1&#45;&gt;j -->
<g id="edge8" class="edge">
<title>n1&#45;&gt;j</title>
<path fill="none" stroke="#000000" d="M229.3735,-71.8314C221.25,-61 210.9657,-47.2876 202.81,-36.4133"/>
</g>
<!-- n1&#45;&gt;c1 -->
<g id="edge9" class="edge">
<title>n1&#45;&gt;c1</title>
<path fill="none" stroke="#000000" d="M247.5422,-71.8314C250.25,-61 253.6781,-47.2876 256.3967,-36.4133"/>
</g>
<!-- y -->
<g id="node10" class="node">
<title>y</title>
<text text-anchor="middle" x="171" y="-86.3" font-family="Times,serif" font-size="14.00" fill="#000000">Cy</text>
</g>
<!-- y&#45;&gt;n1 -->
<!-- n2 -->
<g id="node11" class="node">
<title>n2</title>
<text text-anchor="middle" x="207" y="-158.3" font-family="Times,serif" font-size="14.00" fill="#000000">+</text>
</g>
<!-- n2&#45;&gt;n1 -->
<g id="edge12" class="edge">
<title>n2&#45;&gt;n1</title>
<path fill="none" stroke="#000000" d="M216.0843,-143.8314C221.5,-133 228.3562,-119.2876 233.7934,-108.4133"/>
</g>
<!-- n2&#45;&gt;y -->
<g id="edge11" class="edge">
<title>n2&#45;&gt;y</title>
<path fill="none" stroke="#000000" d="M197.9157,-143.8314C192.5,-133 185.6438,-119.2876 180.2066,-108.4133"/>
</g>
<!-- n3 -->
<g id="node12" class="node">
<title>n3</title>
<text text-anchor="middle" x="207" y="-230.3" font-family="Times,serif" font-size="14.00" fill="#000000">ind</text>
</g>
<!-- n3&#45;&gt;n2 -->
<g id="edge14" class="edge">
<title>n3&#45;&gt;n2</title>
<path fill="none" stroke="#000000" d="M207,-215.8314C207,-205 207,-191.2876 207,-180.4133"/>
</g>
<!-- n6 -->
<g id="node18" class="node">
<title>n6</title>
<text text-anchor="middle" x="279" y="-230.3" font-family="Times,serif" font-size="14.00" fill="#000000">ind</text>
</g>
<!-- n3&#45;&gt;n6 -->
<!-- k -->
<g id="node13" class="node">
<title>k</title>
<text text-anchor="middle" x="369" y="-14.3" font-family="Times,serif" font-size="14.00" fill="#000000">Mk</text>
</g>
<!-- c2 -->
<g id="node14" class="node">
<title>c2</title>
<text text-anchor="middle" x="441" y="-14.3" font-family="Times,serif" font-size="14.00" fill="#000000">C4</text>
</g>
<!-- k&#45;&gt;c2 -->
<!-- n4 -->
<g id="node15" class="node">
<title>n4</title>
<text text-anchor="middle" x="387" y="-86.3" font-family="Times,serif" font-size="14.00" fill="#000000">*</text>
</g>
<!-- n4&#45;&gt;k -->
<g id="edge15" class="edge">
<title>n4&#45;&gt;k</title>
<path fill="none" stroke="#000000" d="M382.4578,-71.8314C379.75,-61 376.3219,-47.2876 373.6033,-36.4133"/>
</g>
<!-- n4&#45;&gt;c2 -->
<g id="edge16" class="edge">
<title>n4&#45;&gt;c2</title>
<path fill="none" stroke="#000000" d="M400.6265,-71.8314C408.75,-61 419.0343,-47.2876 427.19,-36.4133"/>
</g>
<!-- z -->
<g id="node16" class="node">
<title>z</title>
<text text-anchor="middle" x="315" y="-86.3" font-family="Times,serif" font-size="14.00" fill="#000000">Cz</text>
</g>
<!-- z&#45;&gt;n4 -->
<!-- n5 -->
<g id="node17" class="node">
<title>n5</title>
<text text-anchor="middle" x="315" y="-158.3" font-family="Times,serif" font-size="14.00" fill="#000000">+</text>
</g>
<!-- n5&#45;&gt;n4 -->
<g id="edge19" class="edge">
<title>n5&#45;&gt;n4</title>
<path fill="none" stroke="#000000" d="M333.1686,-143.8314C344,-133 357.7124,-119.2876 368.5867,-108.4133"/>
</g>
<!-- n5&#45;&gt;z -->
<g id="edge18" class="edge">
<title>n5&#45;&gt;z</title>
<path fill="none" stroke="#000000" d="M315,-143.8314C315,-133 315,-119.2876 315,-108.4133"/>
</g>
<!-- n6&#45;&gt;n5 -->
<g id="edge21" class="edge">
<title>n6&#45;&gt;n5</title>
<path fill="none" stroke="#000000" d="M288.0843,-215.8314C293.5,-205 300.3562,-191.2876 305.7934,-180.4133"/>
</g>
<!-- n10&#45;&gt;n3 -->
<g id="edge22" class="edge">
<title>n10&#45;&gt;n3</title>
<path fill="none" stroke="#000000" d="M207,-287.8314C207,-277 207,-263.2876 207,-252.4133"/>
</g>
<!-- n10&#45;&gt;n6 -->
<g id="edge23" class="edge">
<title>n10&#45;&gt;n6</title>
<path fill="none" stroke="#000000" d="M225.1686,-287.8314C236,-277 249.7124,-263.2876 260.5867,-252.4133"/>
</g>
<!-- n11 -->
<g id="node20" class="node">
<title>n11</title>
<text text-anchor="middle" x="171" y="-374.3" font-family="Times,serif" font-size="14.00" fill="#000000">=</text>
</g>
<!-- n11&#45;&gt;n9 -->
<g id="edge25" class="edge">
<title>n11&#45;&gt;n9</title>
<path fill="none" stroke="#000000" d="M161.9157,-359.8314C156.5,-349 149.6438,-335.2876 144.2066,-324.4133"/>
</g>
<!-- n11&#45;&gt;n10 -->
<g id="edge26" class="edge">
<title>n11&#45;&gt;n10</title>
<path fill="none" stroke="#000000" d="M180.0843,-359.8314C185.5,-349 192.3562,-335.2876 197.7934,-324.4133"/>
</g>
</g>
</svg>
