<?xml version="1.0" encoding="UTF-8" standalone="no"?>
<!DOCTYPE svg PUBLIC "-//W3C//DTD SVG 1.1//EN"
 "http://www.w3.org/Graphics/SVG/1.1/DTD/svg11.dtd">
<!-- Generated by graphviz version 2.40.1 (20161225.0304)
 -->
<!-- Title: %3 Pages: 1 -->
<svg width="278pt" height="260pt"
 viewBox="0.00 0.00 278.00 260.00" xmlns="http://www.w3.org/2000/svg" xmlns:xlink="http://www.w3.org/1999/xlink">
<g id="graph0" class="graph" transform="scale(1 1) rotate(0) translate(4 256)">
<title>%3</title>
<polygon fill="#ffffff" stroke="transparent" points="-4,4 -4,-256 274,-256 274,4 -4,4"/>
<!-- a -->
<g id="node1" class="node">
<title>a</title>
<text text-anchor="middle" x="27" y="-14.3" font-family="Times,serif" font-size="14.00" fill="#000000">Ma</text>
</g>
<!-- b -->
<g id="node2" class="node">
<title>b</title>
<text text-anchor="middle" x="99" y="-14.3" font-family="Times,serif" font-size="14.00" fill="#000000">Mb</text>
</g>
<!-- a&#45;&gt;b -->
<!-- n1 -->
<g id="node3" class="node">
<title>n1</title>
<text text-anchor="middle" x="99" y="-86.3" font-family="Times,serif" font-size="14.00" fill="#000000">*</text>
</g>
<!-- n1&#45;&gt;a -->
<g id="edge1" class="edge">
<title>n1&#45;&gt;a</title>
<path fill="none" stroke="#000000" d="M80.8314,-71.8314C70,-61 56.2876,-47.2876 45.4133,-36.4133"/>
</g>
<!-- n1&#45;&gt;b -->
<g id="edge2" class="edge">
<title>n1&#45;&gt;b</title>
<path fill="none" stroke="#000000" d="M99,-71.8314C99,-61 99,-47.2876 99,-36.4133"/>
</g>
<!-- n2 -->
<g id="node6" class="node">
<title>n2</title>
<text text-anchor="middle" x="171" y="-86.3" font-family="Times,serif" font-size="14.00" fill="#000000">*</text>
</g>
<!-- n1&#45;&gt;n2 -->
<!-- c -->
<g id="node4" class="node">
<title>c</title>
<text text-anchor="middle" x="171" y="-14.3" font-family="Times,serif" font-size="14.00" fill="#000000">Mc</text>
</g>
<!-- d -->
<g id="node5" class="node">
<title>d</title>
<text text-anchor="middle" x="243" y="-14.3" font-family="Times,serif" font-size="14.00" fill="#000000">Md</text>
</g>
<!-- c&#45;&gt;d -->
<!-- n2&#45;&gt;c -->
<g id="edge4" class="edge">
<title>n2&#45;&gt;c</title>
<path fill="none" stroke="#000000" d="M171,-71.8314C171,-61 171,-47.2876 171,-36.4133"/>
</g>
<!-- n2&#45;&gt;d -->
<g id="edge5" class="edge">
<title>n2&#45;&gt;d</title>
<path fill="none" stroke="#000000" d="M189.1686,-71.8314C200,-61 213.7124,-47.2876 224.5867,-36.4133"/>
</g>
<!-- n3 -->
<g id="node7" class="node">
<title>n3</title>
<text text-anchor="middle" x="135" y="-158.3" font-family="Times,serif" font-size="14.00" fill="#000000">+</text>
</g>
<!-- n3&#45;&gt;n1 -->
<g id="edge7" class="edge">
<title>n3&#45;&gt;n1</title>
<path fill="none" stroke="#000000" d="M125.9157,-143.8314C120.5,-133 113.6438,-119.2876 108.2066,-108.4133"/>
</g>
<!-- n3&#45;&gt;n2 -->
<g id="edge8" class="edge">
<title>n3&#45;&gt;n2</title>
<path fill="none" stroke="#000000" d="M144.0843,-143.8314C149.5,-133 156.3562,-119.2876 161.7934,-108.4133"/>
</g>
<!-- x -->
<g id="node8" class="node">
<title>x</title>
<text text-anchor="middle" x="63" y="-158.3" font-family="Times,serif" font-size="14.00" fill="#000000">Mx</text>
</g>
<!-- x&#45;&gt;n3 -->
<!-- n4 -->
<g id="node9" class="node">
<title>n4</title>
<text text-anchor="middle" x="99" y="-230.3" font-family="Times,serif" font-size="14.00" fill="#000000">=</text>
</g>
<!-- n4&#45;&gt;n3 -->
<g id="edge11" class="edge">
<title>n4&#45;&gt;n3</title>
<path fill="none" stroke="#000000" d="M108.0843,-215.8314C113.5,-205 120.3562,-191.2876 125.7934,-180.4133"/>
</g>
<!-- n4&#45;&gt;x -->
<g id="edge10" class="edge">
<title>n4&#45;&gt;x</title>
<path fill="none" stroke="#000000" d="M89.9157,-215.8314C84.5,-205 77.6438,-191.2876 72.2066,-180.4133"/>
</g>
</g>
</svg>
